<mxfile host="Electron" agent="Mozilla/5.0 (Windows NT 10.0; Win64; x64) AppleWebKit/537.36 (KHTML, like Gecko) draw.io/24.7.5 Chrome/126.0.6478.183 Electron/31.3.0 Safari/537.36" compressed="false" version="24.7.5">
  <diagram id="prtHgNgQTEPvFCAcTncT" name="Page-1">
    <mxGraphModel dx="-5648" dy="-1684" grid="1" gridSize="10" guides="1" tooltips="1" connect="1" arrows="1" fold="1" page="1" pageScale="1" pageWidth="1169" pageHeight="827" math="1" shadow="0">
      <root>
        <mxCell id="0" />
        <mxCell id="1" parent="0" />
        <mxCell id="RfiaX51ck18fG0xROHYH-11" value="&lt;span style=&quot;font-size: 36px;&quot;&gt;Manuscript 2-7-24&lt;/span&gt;" style="text;html=1;strokeColor=none;fillColor=none;align=center;verticalAlign=middle;whiteSpace=wrap;rounded=0;" parent="1" vertex="1">
          <mxGeometry x="7340" y="2549.9999999999995" width="330" height="30" as="geometry" />
        </mxCell>
        <mxCell id="RfiaX51ck18fG0xROHYH-14" value="&lt;span style=&quot;font-size: 36px;&quot;&gt;Study Strategy&lt;/span&gt;" style="text;html=1;strokeColor=none;fillColor=none;align=center;verticalAlign=middle;whiteSpace=wrap;rounded=0;" parent="1" vertex="1">
          <mxGeometry x="7340" y="2604.9999999999995" width="330" height="30" as="geometry" />
        </mxCell>
        <mxCell id="RfiaX51ck18fG0xROHYH-56" value="" style="edgeStyle=orthogonalEdgeStyle;rounded=0;orthogonalLoop=1;jettySize=auto;html=1;" parent="1" source="RfiaX51ck18fG0xROHYH-53" target="RfiaX51ck18fG0xROHYH-55" edge="1">
          <mxGeometry relative="1" as="geometry" />
        </mxCell>
        <mxCell id="RfiaX51ck18fG0xROHYH-53" value="&lt;div style=&quot;&quot;&gt;&lt;div style=&quot;&quot;&gt;&lt;div style=&quot;font-size: 11px;&quot;&gt;&lt;span style=&quot;text-align: justify; background-color: initial; font-size: 12px;&quot;&gt;&lt;b&gt;Acute Leukemia Methylome Atlas&lt;/b&gt;&lt;/span&gt;&lt;/div&gt;&lt;div style=&quot;font-size: 11px;&quot;&gt;&lt;span style=&quot;text-align: justify; background-color: initial; font-size: 12px;&quot;&gt;n=3308&lt;/span&gt;&lt;/div&gt;&lt;div style=&quot;font-size: 11px;&quot;&gt;&lt;span style=&quot;text-align: justify; background-color: initial; font-size: 12px;&quot;&gt;AML, ALL, MDS, MPAL studies/trials&lt;/span&gt;&lt;br&gt;&lt;/div&gt;&lt;div style=&quot;text-align: justify;&quot;&gt;&lt;div style=&quot;font-size: 11px;&quot;&gt;&lt;span style=&quot;font-size: 12px;&quot;&gt;Bone Marrow and Peripheral Blood&amp;nbsp;&lt;/span&gt;&lt;/div&gt;&lt;/div&gt;&lt;/div&gt;&lt;/div&gt;" style="rounded=0;whiteSpace=wrap;html=1;align=center;" parent="1" vertex="1">
          <mxGeometry x="7070" y="2817.96" width="261" height="90.09" as="geometry" />
        </mxCell>
        <mxCell id="RfiaX51ck18fG0xROHYH-57" value="" style="edgeStyle=orthogonalEdgeStyle;rounded=0;orthogonalLoop=1;jettySize=auto;html=1;" parent="1" source="RfiaX51ck18fG0xROHYH-53" target="RfiaX51ck18fG0xROHYH-54" edge="1">
          <mxGeometry relative="1" as="geometry" />
        </mxCell>
        <mxCell id="RfiaX51ck18fG0xROHYH-60" value="" style="edgeStyle=orthogonalEdgeStyle;rounded=0;orthogonalLoop=1;jettySize=auto;html=1;" parent="1" source="RfiaX51ck18fG0xROHYH-54" target="RfiaX51ck18fG0xROHYH-58" edge="1">
          <mxGeometry relative="1" as="geometry" />
        </mxCell>
        <mxCell id="RfiaX51ck18fG0xROHYH-54" value="&lt;div style=&quot;&quot;&gt;&lt;div style=&quot;&quot;&gt;&lt;div style=&quot;text-align: justify;&quot;&gt;&lt;b&gt;AML Epigenomic Risk&lt;/b&gt;&lt;/div&gt;&lt;div style=&quot;&quot;&gt;n=1844&lt;b&gt;&lt;br&gt;&lt;/b&gt;&lt;/div&gt;&lt;div style=&quot;font-size: 11px; text-align: left;&quot;&gt;&lt;span style=&quot;font-size: 12px; text-align: justify; background-color: initial;&quot;&gt;Samples with vital status&lt;/span&gt;&lt;/div&gt;&lt;/div&gt;&lt;/div&gt;" style="rounded=0;whiteSpace=wrap;html=1;align=center;" parent="1" vertex="1">
          <mxGeometry x="7380" y="2796.5" width="260" height="70" as="geometry" />
        </mxCell>
        <mxCell id="RfiaX51ck18fG0xROHYH-61" value="" style="edgeStyle=orthogonalEdgeStyle;rounded=0;orthogonalLoop=1;jettySize=auto;html=1;" parent="1" source="RfiaX51ck18fG0xROHYH-55" target="RfiaX51ck18fG0xROHYH-58" edge="1">
          <mxGeometry relative="1" as="geometry" />
        </mxCell>
        <mxCell id="RfiaX51ck18fG0xROHYH-55" value="&lt;div style=&quot;&quot;&gt;&lt;div style=&quot;&quot;&gt;&lt;div style=&quot;font-size: 11px; text-align: justify;&quot;&gt;&lt;b&gt;&lt;font style=&quot;font-size: 12px;&quot;&gt;AL Epigenomic Phenotype&lt;/font&gt;&lt;/b&gt;&lt;/div&gt;&lt;div style=&quot;&quot;&gt;&lt;div style=&quot;&quot;&gt;&lt;span style=&quot;background-color: initial;&quot;&gt;n=2445&lt;/span&gt;&lt;/div&gt;&lt;div style=&quot;&quot;&gt;Samples with WHO 2022 Dx&lt;/div&gt;&lt;/div&gt;&lt;/div&gt;&lt;/div&gt;" style="rounded=0;whiteSpace=wrap;html=1;align=center;" parent="1" vertex="1">
          <mxGeometry x="7380" y="2868.05" width="260" height="70" as="geometry" />
        </mxCell>
        <mxCell id="RfiaX51ck18fG0xROHYH-62" value="" style="edgeStyle=orthogonalEdgeStyle;rounded=0;orthogonalLoop=1;jettySize=auto;html=1;" parent="1" source="RfiaX51ck18fG0xROHYH-58" target="RfiaX51ck18fG0xROHYH-59" edge="1">
          <mxGeometry relative="1" as="geometry" />
        </mxCell>
        <mxCell id="RfiaX51ck18fG0xROHYH-58" value="&lt;div style=&quot;&quot;&gt;&lt;div style=&quot;&quot;&gt;&lt;div style=&quot;font-size: 11px;&quot;&gt;&lt;span style=&quot;font-size: 12px; text-align: justify; background-color: initial;&quot;&gt;&lt;b&gt;Multi-center AML02,08 Trials&lt;/b&gt;&lt;/span&gt;&lt;br&gt;&lt;/div&gt;&lt;div style=&quot;font-size: 11px;&quot;&gt;&lt;span style=&quot;font-size: 12px; text-align: justify; background-color: initial;&quot;&gt;n=201&lt;/span&gt;&lt;/div&gt;&lt;div style=&quot;text-align: justify;&quot;&gt;&lt;div style=&quot;font-size: 11px;&quot;&gt;&lt;font style=&quot;font-size: 12px;&quot;&gt;Dx BM,&amp;nbsp;&lt;/font&gt;&lt;span style=&quot;font-size: 12px; background-color: initial;&quot;&gt;Illumina methyl array&lt;/span&gt;&lt;/div&gt;&lt;/div&gt;&lt;/div&gt;&lt;/div&gt;" style="rounded=0;whiteSpace=wrap;html=1;align=center;" parent="1" vertex="1">
          <mxGeometry x="7683.879999999999" y="2832.96" width="260" height="70" as="geometry" />
        </mxCell>
        <mxCell id="RfiaX51ck18fG0xROHYH-59" value="&lt;div style=&quot;&quot;&gt;&lt;div style=&quot;&quot;&gt;&lt;div style=&quot;&quot;&gt;&lt;b&gt;Univ. of Florida HemBank&lt;/b&gt;&lt;/div&gt;&lt;div style=&quot;&quot;&gt;n=20&lt;/div&gt;&lt;div style=&quot;text-align: justify;&quot;&gt;&lt;div style=&quot;font-size: 11px;&quot;&gt;&lt;font style=&quot;font-size: 12px;&quot;&gt;PB/BM, long-read Nanopore seq&lt;/font&gt;&lt;/div&gt;&lt;/div&gt;&lt;/div&gt;&lt;/div&gt;" style="rounded=0;whiteSpace=wrap;html=1;align=center;" parent="1" vertex="1">
          <mxGeometry x="7970" y="2832.96" width="260" height="70" as="geometry" />
        </mxCell>
        <mxCell id="WusMIFzBygcmgUizYu5A-5" value="" style="edgeStyle=orthogonalEdgeStyle;rounded=0;orthogonalLoop=1;jettySize=auto;html=1;" parent="1" source="RfiaX51ck18fG0xROHYH-67" target="WusMIFzBygcmgUizYu5A-1" edge="1">
          <mxGeometry relative="1" as="geometry" />
        </mxCell>
        <mxCell id="RfiaX51ck18fG0xROHYH-67" value="&lt;div style=&quot;text-align: justify;&quot;&gt;&lt;div&gt;&lt;div style=&quot;text-align: center;&quot;&gt;&lt;b&gt;&lt;font style=&quot;font-size: 12px;&quot;&gt;&amp;nbsp;Data Pre-Processing&lt;/font&gt;&lt;/b&gt;&lt;/div&gt;&lt;/div&gt;&lt;/div&gt;&lt;div style=&quot;text-align: left;&quot;&gt;&lt;br&gt;&lt;/div&gt;&lt;div style=&quot;text-align: left;&quot;&gt;&lt;br&gt;&lt;/div&gt;&lt;div style=&quot;text-align: left;&quot;&gt;&lt;font style=&quot;font-size: 12px;&quot;&gt;Input: 3845 samples with&amp;nbsp;&lt;span style=&quot;background-color: initial;&quot;&gt;452,453 CpGs&lt;/span&gt;&lt;/font&gt;&lt;/div&gt;&lt;div style=&quot;text-align: left;&quot;&gt;&lt;span style=&quot;background-color: initial;&quot;&gt;&lt;br&gt;&lt;/span&gt;&lt;/div&gt;&lt;div style=&quot;text-align: left;&quot;&gt;&lt;font style=&quot;font-size: 12px;&quot;&gt;&lt;b style=&quot;background-color: initial;&quot;&gt;1.&amp;nbsp;&lt;/b&gt;&lt;b style=&quot;background-color: initial;&quot;&gt;&lt;font style=&quot;&quot;&gt;Pre-process raw data&lt;/font&gt;&lt;/b&gt;&lt;/font&gt;&lt;br&gt;&lt;/div&gt;&lt;div&gt;&lt;div style=&quot;text-align: left;&quot;&gt;&lt;span style=&quot;background-color: initial;&quot;&gt;&lt;font style=&quot;font-size: 11px;&quot;&gt;SeSAMe (PMID: 30085201)&lt;/font&gt;&lt;/span&gt;&lt;/div&gt;&lt;div style=&quot;text-align: left;&quot;&gt;&lt;span style=&quot;font-size: 12px;&quot;&gt;&lt;br&gt;&lt;/span&gt;&lt;/div&gt;&lt;div style=&quot;&quot;&gt;&lt;div style=&quot;text-align: left;&quot;&gt;&lt;font style=&quot;font-size: 12px;&quot;&gt;&lt;b style=&quot;&quot;&gt;2.&amp;nbsp;&lt;/b&gt;&lt;b style=&quot;background-color: initial;&quot;&gt;Exclude suboptimal CpG probes&lt;/b&gt;&lt;/font&gt;&lt;/div&gt;&lt;div style=&quot;text-align: left;&quot;&gt;&lt;font style=&quot;font-size: 11px;&quot;&gt;47,382 CpGs removed&amp;nbsp;&lt;span style=&quot;background-color: initial;&quot;&gt;(PMID: 27924034)&lt;/span&gt;&lt;/font&gt;&lt;/div&gt;&lt;div&gt;&lt;span style=&quot;background-color: initial; font-size: 12px;&quot;&gt;&lt;br&gt;&lt;/span&gt;&lt;/div&gt;&lt;div&gt;&lt;div style=&quot;text-align: left;&quot;&gt;&lt;font size=&quot;1&quot;&gt;&lt;b style=&quot;font-size: 12px;&quot;&gt;3.&amp;nbsp;&lt;/b&gt;&lt;/font&gt;&lt;b style=&quot;background-color: initial; font-size: 12px;&quot;&gt;Exclude sex-linked CpG probes&lt;/b&gt;&lt;/div&gt;&lt;div style=&quot;text-align: left;&quot;&gt;&lt;font style=&quot;font-size: 11px;&quot;&gt;9,570&amp;nbsp; CpGs&amp;nbsp;&lt;/font&gt;removed&lt;/div&gt;&lt;/div&gt;&lt;div style=&quot;text-align: left;&quot;&gt;&lt;br&gt;&lt;/div&gt;&lt;div style=&quot;text-align: left;&quot;&gt;&lt;div&gt;&lt;b style=&quot;&quot;&gt;&lt;font style=&quot;font-size: 12px;&quot;&gt;4. Exclude non-hematopoietic samples&lt;/font&gt;&lt;/b&gt;&lt;/div&gt;&lt;div&gt;&lt;font style=&quot;font-size: 11px;&quot;&gt;60 samples&amp;nbsp;&lt;/font&gt;removed&lt;/div&gt;&lt;/div&gt;&lt;div&gt;&lt;span style=&quot;font-size: 12px;&quot;&gt;&lt;br&gt;&lt;/span&gt;&lt;/div&gt;&lt;div&gt;&lt;div style=&quot;text-align: left;&quot;&gt;&lt;font style=&quot;font-size: 12px;&quot;&gt;&lt;b style=&quot;&quot;&gt;5.&amp;nbsp;&lt;/b&gt;&lt;b style=&quot;background-color: initial;&quot;&gt;Exclude failed Illumina QC samples&lt;/b&gt;&lt;/font&gt;&lt;/div&gt;&lt;div style=&quot;text-align: left;&quot;&gt;&lt;font style=&quot;font-size: 11px;&quot;&gt;466 samples&amp;nbsp;&lt;/font&gt;removed&lt;/div&gt;&lt;div style=&quot;text-align: left;&quot;&gt;&lt;font style=&quot;font-size: 11px;&quot;&gt;(pOOBAH &amp;gt; 0.05 in &amp;gt; 20% probes)&lt;/font&gt;&lt;span style=&quot;font-size: 12px;&quot;&gt;&amp;nbsp;&lt;/span&gt;&lt;/div&gt;&lt;/div&gt;&lt;div style=&quot;text-align: left;&quot;&gt;&lt;span style=&quot;font-size: 12px;&quot;&gt;&lt;br&gt;&lt;/span&gt;&lt;/div&gt;&lt;div&gt;&lt;div style=&quot;text-align: left;&quot;&gt;&lt;font style=&quot;font-size: 12px;&quot;&gt;&lt;b style=&quot;&quot;&gt;6.&amp;nbsp;&lt;/b&gt;&lt;b style=&quot;background-color: initial;&quot;&gt;Exclude CpGs with missing values&lt;/b&gt;&lt;/font&gt;&lt;/div&gt;&lt;div style=&quot;text-align: left;&quot;&gt;&lt;font style=&quot;font-size: 11px;&quot;&gt;62,443 CpGs&amp;nbsp;&lt;/font&gt;removed&lt;/div&gt;&lt;div style=&quot;text-align: left;&quot;&gt;&lt;font style=&quot;font-size: 11px;&quot;&gt;(which contained &amp;gt;5% of missing values)&lt;/font&gt;&lt;/div&gt;&lt;/div&gt;&lt;div style=&quot;text-align: left;&quot;&gt;&lt;span style=&quot;font-size: 12px;&quot;&gt;&lt;br&gt;&lt;/span&gt;&lt;/div&gt;&lt;div style=&quot;text-align: left;&quot;&gt;&lt;div&gt;&lt;font size=&quot;1&quot;&gt;&lt;b style=&quot;font-size: 12px;&quot;&gt;7. Impute remaining missing values&lt;/b&gt;&lt;/font&gt;&lt;/div&gt;&lt;div&gt;&lt;font style=&quot;font-size: 11px;&quot;&gt;By mean of batch (PMID: 32600298)&lt;/font&gt;&lt;/div&gt;&lt;div&gt;&lt;br&gt;&lt;/div&gt;&lt;div&gt;&lt;div&gt;&lt;font size=&quot;1&quot;&gt;&lt;b style=&quot;font-size: 12px;&quot;&gt;8. Exclude outliers by PCA&lt;/b&gt;&lt;/font&gt;&lt;/div&gt;&lt;div&gt;11 samples&amp;nbsp;removed&lt;span style=&quot;background-color: initial;&quot;&gt;&amp;nbsp;&lt;/span&gt;&lt;span style=&quot;background-color: initial;&quot;&gt;(whose PC1 &amp;gt;= 5 std)&lt;/span&gt;&lt;/div&gt;&lt;/div&gt;&lt;div&gt;&lt;br&gt;&lt;/div&gt;&lt;div&gt;&lt;div&gt;&lt;font size=&quot;1&quot;&gt;&lt;b style=&quot;font-size: 12px;&quot;&gt;9. Run batch correction&lt;/b&gt;&lt;/font&gt;&lt;/div&gt;&lt;/div&gt;&lt;div&gt;&lt;font style=&quot;font-size: 11px;&quot;&gt;pyComBat (PMID: 16632515)&lt;/font&gt;&lt;/div&gt;&lt;div&gt;&lt;br&gt;&lt;/div&gt;&lt;div&gt;&lt;div&gt;&lt;font size=&quot;1&quot;&gt;&lt;b style=&quot;font-size: 12px;&quot;&gt;10. Index, merge, clean clinical data&lt;/b&gt;&lt;/font&gt;&lt;/div&gt;&lt;div&gt;Harmonize clinical data into a single dataset&lt;/div&gt;&lt;/div&gt;&lt;div&gt;&lt;br&gt;&lt;/div&gt;&lt;div&gt;&lt;font style=&quot;font-size: 12px;&quot;&gt;Output: 3308 samples with 333,058 CpGs&lt;/font&gt;&lt;/div&gt;&lt;div&gt;&lt;br&gt;&lt;/div&gt;&lt;/div&gt;&lt;/div&gt;&lt;/div&gt;" style="rounded=0;whiteSpace=wrap;html=1;fontSize=11;align=center;" parent="1" vertex="1">
          <mxGeometry x="7060" y="3211.13" width="270" height="571" as="geometry" />
        </mxCell>
        <mxCell id="RfiaX51ck18fG0xROHYH-68" value="" style="endArrow=none;html=1;rounded=0;fontSize=12;" parent="1" edge="1">
          <mxGeometry width="50" height="50" relative="1" as="geometry">
            <mxPoint x="7060.880000000001" y="3252.13" as="sourcePoint" />
            <mxPoint x="7330" y="3252.13" as="targetPoint" />
          </mxGeometry>
        </mxCell>
        <mxCell id="RfiaX51ck18fG0xROHYH-69" style="edgeStyle=orthogonalEdgeStyle;rounded=0;orthogonalLoop=1;jettySize=auto;html=1;exitX=0.5;exitY=1;exitDx=0;exitDy=0;" parent="1" source="RfiaX51ck18fG0xROHYH-67" target="RfiaX51ck18fG0xROHYH-67" edge="1">
          <mxGeometry relative="1" as="geometry" />
        </mxCell>
        <mxCell id="JzanWbyPBiSka4KLxT4m-13" value="" style="edgeStyle=orthogonalEdgeStyle;rounded=0;orthogonalLoop=1;jettySize=auto;html=1;" parent="1" source="WusMIFzBygcmgUizYu5A-1" target="RfiaX51ck18fG0xROHYH-70" edge="1">
          <mxGeometry relative="1" as="geometry" />
        </mxCell>
        <mxCell id="JzanWbyPBiSka4KLxT4m-16" value="" style="edgeStyle=orthogonalEdgeStyle;rounded=0;orthogonalLoop=1;jettySize=auto;html=1;" parent="1" source="RfiaX51ck18fG0xROHYH-70" target="JzanWbyPBiSka4KLxT4m-8" edge="1">
          <mxGeometry relative="1" as="geometry" />
        </mxCell>
        <mxCell id="RfiaX51ck18fG0xROHYH-70" value="&lt;div style=&quot;text-align: justify;&quot;&gt;&lt;div style=&quot;text-align: center;&quot;&gt;&lt;b style=&quot;font-size: 12px;&quot;&gt;Prognostic Model Development&amp;nbsp;&lt;/b&gt;&lt;br&gt;&lt;/div&gt;&lt;/div&gt;&lt;div style=&quot;text-align: left;&quot;&gt;&lt;br&gt;&lt;/div&gt;&lt;div style=&quot;text-align: left;&quot;&gt;&lt;br&gt;&lt;/div&gt;&lt;div style=&quot;text-align: left;&quot;&gt;&lt;font style=&quot;font-size: 12px;&quot;&gt;Input: 3308 samples&lt;/font&gt;&lt;/div&gt;&lt;div style=&quot;text-align: left;&quot;&gt;&lt;font style=&quot;font-size: 12px;&quot;&gt;&lt;span style=&quot;white-space: pre;&quot;&gt;&#x9;&lt;/span&gt;&amp;nbsp; &amp;nbsp;with 5 PaCMAP coordinates&amp;nbsp;&lt;/font&gt;&lt;/div&gt;&lt;div style=&quot;text-align: left;&quot;&gt;&lt;span style=&quot;background-color: initial;&quot;&gt;&lt;br&gt;&lt;/span&gt;&lt;/div&gt;&lt;div style=&quot;text-align: left;&quot;&gt;&lt;font style=&quot;font-size: 12px;&quot;&gt;&lt;b style=&quot;background-color: initial;&quot;&gt;1. Select samples with vital status&lt;/b&gt;&lt;/font&gt;&lt;br&gt;&lt;/div&gt;&lt;div&gt;&lt;div style=&quot;text-align: left;&quot;&gt;&lt;span style=&quot;background-color: initial;&quot;&gt;1797 samples had overall survival info&lt;/span&gt;&lt;br&gt;&lt;/div&gt;&lt;div style=&quot;text-align: left;&quot;&gt;&lt;span style=&quot;font-size: 12px;&quot;&gt;&lt;br&gt;&lt;/span&gt;&lt;/div&gt;&lt;div style=&quot;&quot;&gt;&lt;div style=&quot;text-align: left;&quot;&gt;&lt;font style=&quot;font-size: 12px;&quot;&gt;&lt;b style=&quot;&quot;&gt;2. Devise supervised model&lt;/b&gt;&lt;/font&gt;&lt;/div&gt;&lt;div&gt;&lt;div style=&quot;text-align: left;&quot;&gt;5 PaCMAP coordinates as input&lt;/div&gt;&lt;/div&gt;&lt;div style=&quot;text-align: left;&quot;&gt;Overall survival as target output&lt;/div&gt;&lt;div style=&quot;text-align: left;&quot;&gt;Grid search, 10-fold CV, regularization&lt;/div&gt;&lt;div style=&quot;text-align: left;&quot;&gt;LightGBM Classifier (Microsoft, 2017)&lt;/div&gt;&lt;div style=&quot;text-align: left;&quot;&gt;&lt;div&gt;&lt;br&gt;&lt;/div&gt;&lt;div&gt;&lt;font style=&quot;background-color: initial; font-size: 12px;&quot;&gt;Output:&amp;nbsp;&lt;/font&gt;&lt;b style=&quot;background-color: initial; font-size: 12px; text-align: center;&quot;&gt;AML Epigenomic Risk&lt;/b&gt;&lt;br&gt;&lt;/div&gt;&lt;div&gt;A prognostic risk score for AML&lt;/div&gt;&lt;/div&gt;&lt;/div&gt;&lt;/div&gt;" style="rounded=0;whiteSpace=wrap;html=1;fontSize=11;align=center;" parent="1" vertex="1">
          <mxGeometry x="7710" y="3211.13" width="270" height="261.18" as="geometry" />
        </mxCell>
        <mxCell id="RfiaX51ck18fG0xROHYH-71" value="" style="endArrow=none;html=1;rounded=0;fontSize=12;" parent="1" edge="1">
          <mxGeometry width="50" height="50" relative="1" as="geometry">
            <mxPoint x="7710.880000000001" y="3252.31" as="sourcePoint" />
            <mxPoint x="7980" y="3252.31" as="targetPoint" />
          </mxGeometry>
        </mxCell>
        <mxCell id="RfiaX51ck18fG0xROHYH-74" value="&lt;span style=&quot;font-size: 36px;&quot;&gt;Detailed Study Strategy&lt;/span&gt;" style="text;html=1;strokeColor=none;fillColor=none;align=center;verticalAlign=middle;whiteSpace=wrap;rounded=0;" parent="1" vertex="1">
          <mxGeometry x="7460" y="3120" width="420" height="30" as="geometry" />
        </mxCell>
        <mxCell id="O-bsByhJzpPo9jhtWd-1-15" value="Unveil the epigenomic landscape of acute leukemia" style="text;html=1;strokeColor=none;fillColor=none;align=center;verticalAlign=middle;whiteSpace=wrap;rounded=0;" parent="1" vertex="1">
          <mxGeometry x="7109.629999999999" y="2782.96" width="181.75" height="30" as="geometry" />
        </mxCell>
        <mxCell id="O-bsByhJzpPo9jhtWd-1-16" value="Use AL landscape to create models predictive of diagnosis and prognosis" style="text;html=1;strokeColor=none;fillColor=none;align=center;verticalAlign=middle;whiteSpace=wrap;rounded=0;" parent="1" vertex="1">
          <mxGeometry x="7390" y="2750" width="240" height="45" as="geometry" />
        </mxCell>
        <mxCell id="O-bsByhJzpPo9jhtWd-1-17" value="Validate models retrospectively in rigorous clinical trials&amp;nbsp;" style="text;html=1;strokeColor=none;fillColor=none;align=center;verticalAlign=middle;whiteSpace=wrap;rounded=0;" parent="1" vertex="1">
          <mxGeometry x="7725.26" y="2796.5" width="177.24" height="30" as="geometry" />
        </mxCell>
        <mxCell id="O-bsByhJzpPo9jhtWd-1-18" value="Test models prospectively in fresh and frozen patient samples" style="text;html=1;strokeColor=none;fillColor=none;align=center;verticalAlign=middle;whiteSpace=wrap;rounded=0;" parent="1" vertex="1">
          <mxGeometry x="8000" y="2796.5" width="200" height="30" as="geometry" />
        </mxCell>
        <mxCell id="JzanWbyPBiSka4KLxT4m-12" value="" style="edgeStyle=orthogonalEdgeStyle;rounded=0;orthogonalLoop=1;jettySize=auto;html=1;" parent="1" source="WusMIFzBygcmgUizYu5A-1" target="JzanWbyPBiSka4KLxT4m-4" edge="1">
          <mxGeometry relative="1" as="geometry" />
        </mxCell>
        <mxCell id="WusMIFzBygcmgUizYu5A-1" value="&lt;div style=&quot;text-align: justify;&quot;&gt;&lt;div style=&quot;text-align: center;&quot;&gt;&lt;b style=&quot;font-size: 12px;&quot;&gt;Acute Leukemia Methylome Atlas&amp;nbsp;&lt;/b&gt;&lt;br&gt;&lt;/div&gt;&lt;div style=&quot;text-align: center;&quot;&gt;&lt;b style=&quot;font-size: 12px;&quot;&gt;&lt;br&gt;&lt;/b&gt;&lt;/div&gt;&lt;/div&gt;&lt;div style=&quot;text-align: left;&quot;&gt;&lt;br&gt;&lt;/div&gt;&lt;div style=&quot;text-align: left;&quot;&gt;&lt;font style=&quot;font-size: 12px;&quot;&gt;Input: 3308 samples with 333,058 CpGs&lt;/font&gt;&lt;/div&gt;&lt;div&gt;&lt;div style=&quot;&quot;&gt;&lt;div&gt;&lt;span style=&quot;background-color: initial; font-size: 12px;&quot;&gt;&lt;br&gt;&lt;/span&gt;&lt;/div&gt;&lt;div&gt;&lt;div style=&quot;text-align: left;&quot;&gt;&lt;font size=&quot;1&quot;&gt;&lt;b style=&quot;font-size: 12px;&quot;&gt;1. Devise Acute Leukemia Atlas&lt;/b&gt;&lt;/font&gt;&lt;/div&gt;&lt;div style=&quot;text-align: left;&quot;&gt;PaCMAP (JMLR:v22-20-1061)&lt;/div&gt;&lt;div style=&quot;text-align: left;&quot;&gt;&lt;span style=&quot;background-color: initial;&quot;&gt;&lt;font style=&quot;font-size: 11px;&quot;&gt;Large-scale dimension reduction&lt;/font&gt;&lt;/span&gt;&lt;/div&gt;&lt;/div&gt;&lt;div style=&quot;text-align: left;&quot;&gt;Unsupervised model&lt;/div&gt;&lt;div style=&quot;text-align: left;&quot;&gt;&lt;div&gt;&lt;font style=&quot;background-color: initial; font-size: 12px;&quot;&gt;&lt;br&gt;&lt;/font&gt;&lt;/div&gt;&lt;div&gt;&lt;font style=&quot;background-color: initial; font-size: 12px;&quot;&gt;Output:&amp;nbsp;&lt;/font&gt;&lt;b style=&quot;background-color: initial; font-size: 12px; text-align: center;&quot;&gt;5 PaCMAP coordinates&lt;/b&gt;&lt;br&gt;&lt;/div&gt;&lt;/div&gt;&lt;div style=&quot;text-align: left;&quot;&gt;&lt;div&gt;&lt;b style=&quot;background-color: initial; font-size: 12px; text-align: center;&quot;&gt;&lt;br&gt;&lt;/b&gt;&lt;/div&gt;&lt;div&gt;&lt;span style=&quot;font-size: 12px;&quot;&gt;&lt;i&gt;Coordinates here are like longitude&lt;/i&gt;&lt;/span&gt;&lt;/div&gt;&lt;div&gt;&lt;i&gt;&lt;span style=&quot;font-size: 12px;&quot;&gt;and&amp;nbsp;&lt;/span&gt;&lt;span style=&quot;font-size: 12px; background-color: initial;&quot;&gt;latitude coordinates used in maps.&amp;nbsp;&lt;/span&gt;&lt;/i&gt;&lt;/div&gt;&lt;div&gt;&lt;i&gt;&lt;span style=&quot;font-size: 12px; background-color: initial;&quot;&gt;It forms the grid through which&lt;/span&gt;&lt;/i&gt;&lt;i style=&quot;background-color: initial;&quot;&gt;&lt;span style=&quot;background-color: initial; font-size: 12px;&quot;&gt;&amp;nbsp;patient&amp;nbsp;&lt;/span&gt;&lt;/i&gt;&lt;/div&gt;&lt;div&gt;&lt;i style=&quot;background-color: initial;&quot;&gt;&lt;span style=&quot;background-color: initial; font-size: 12px;&quot;&gt;samples can be&amp;nbsp;&lt;/span&gt;&lt;/i&gt;&lt;i style=&quot;background-color: initial;&quot;&gt;&lt;span style=&quot;background-color: initial; font-size: 12px;&quot;&gt;mapped.&lt;/span&gt;&lt;/i&gt;&lt;/div&gt;&lt;/div&gt;&lt;/div&gt;&lt;/div&gt;" style="rounded=0;whiteSpace=wrap;html=1;fontSize=11;align=center;" parent="1" vertex="1">
          <mxGeometry x="7380" y="3361.14" width="270" height="271.15" as="geometry" />
        </mxCell>
        <mxCell id="WusMIFzBygcmgUizYu5A-4" value="" style="endArrow=none;html=1;rounded=0;fontSize=12;" parent="1" edge="1">
          <mxGeometry width="50" height="50" relative="1" as="geometry">
            <mxPoint x="7380.880000000001" y="3412.31" as="sourcePoint" />
            <mxPoint x="7650" y="3412.31" as="targetPoint" />
          </mxGeometry>
        </mxCell>
        <mxCell id="JzanWbyPBiSka4KLxT4m-17" value="" style="edgeStyle=orthogonalEdgeStyle;rounded=0;orthogonalLoop=1;jettySize=auto;html=1;" parent="1" source="JzanWbyPBiSka4KLxT4m-4" target="JzanWbyPBiSka4KLxT4m-8" edge="1">
          <mxGeometry relative="1" as="geometry" />
        </mxCell>
        <mxCell id="JzanWbyPBiSka4KLxT4m-4" value="&lt;div style=&quot;text-align: justify;&quot;&gt;&lt;div style=&quot;text-align: center;&quot;&gt;&lt;b style=&quot;font-size: 12px;&quot;&gt;Diagnostic Model Development&amp;nbsp;&lt;/b&gt;&lt;br&gt;&lt;/div&gt;&lt;/div&gt;&lt;div style=&quot;text-align: left;&quot;&gt;&lt;br&gt;&lt;/div&gt;&lt;div style=&quot;text-align: left;&quot;&gt;&lt;br&gt;&lt;/div&gt;&lt;div style=&quot;text-align: left;&quot;&gt;&lt;font style=&quot;font-size: 12px;&quot;&gt;Input: 3308 samples&lt;/font&gt;&lt;/div&gt;&lt;div style=&quot;text-align: left;&quot;&gt;&lt;font style=&quot;font-size: 12px;&quot;&gt;&lt;span style=&quot;white-space: pre;&quot;&gt;&#x9;&lt;/span&gt;&amp;nbsp; &amp;nbsp;with 5 PaCMAP coordinates&amp;nbsp;&lt;/font&gt;&lt;/div&gt;&lt;div style=&quot;text-align: left;&quot;&gt;&lt;span style=&quot;background-color: initial;&quot;&gt;&lt;br&gt;&lt;/span&gt;&lt;/div&gt;&lt;div style=&quot;text-align: left;&quot;&gt;&lt;font style=&quot;font-size: 12px;&quot;&gt;&lt;b style=&quot;background-color: initial;&quot;&gt;1. Select samples with Dx data&lt;/b&gt;&lt;/font&gt;&lt;br&gt;&lt;/div&gt;&lt;div&gt;&lt;div style=&quot;text-align: left;&quot;&gt;&lt;span style=&quot;background-color: initial;&quot;&gt;2445 samples had WHO22 Dx info&lt;/span&gt;&lt;br&gt;&lt;/div&gt;&lt;div style=&quot;text-align: left;&quot;&gt;&lt;span style=&quot;font-size: 12px;&quot;&gt;&lt;br&gt;&lt;/span&gt;&lt;/div&gt;&lt;div style=&quot;&quot;&gt;&lt;div style=&quot;text-align: left;&quot;&gt;&lt;font style=&quot;font-size: 12px;&quot;&gt;&lt;b style=&quot;&quot;&gt;2. Devise supervised model&lt;/b&gt;&lt;/font&gt;&lt;/div&gt;&lt;div&gt;&lt;div style=&quot;text-align: left;&quot;&gt;5 PaCMAP coordinates as input&lt;/div&gt;&lt;/div&gt;&lt;div style=&quot;text-align: left;&quot;&gt;WHO2022 Dx as target output&lt;/div&gt;&lt;div style=&quot;text-align: left;&quot;&gt;Grid search, 10-fold CV, regularization&lt;/div&gt;&lt;div style=&quot;text-align: left;&quot;&gt;LightGBM Classifier (Microsoft 2017)&lt;/div&gt;&lt;div style=&quot;text-align: left;&quot;&gt;&lt;div&gt;&lt;br&gt;&lt;/div&gt;&lt;div&gt;&lt;font style=&quot;background-color: initial; font-size: 12px;&quot;&gt;Output:&amp;nbsp;&lt;/font&gt;&lt;b style=&quot;background-color: initial; font-size: 12px; text-align: center;&quot;&gt;AL Epigenomic Subtype&lt;/b&gt;&lt;br&gt;&lt;/div&gt;&lt;div&gt;A WHO 2022 diagnostic classifier for AL&lt;/div&gt;&lt;/div&gt;&lt;/div&gt;&lt;/div&gt;" style="rounded=0;whiteSpace=wrap;html=1;fontSize=11;align=center;" parent="1" vertex="1">
          <mxGeometry x="7710" y="3522.13" width="270" height="260" as="geometry" />
        </mxCell>
        <mxCell id="JzanWbyPBiSka4KLxT4m-5" value="" style="endArrow=none;html=1;rounded=0;fontSize=12;" parent="1" edge="1">
          <mxGeometry width="50" height="50" relative="1" as="geometry">
            <mxPoint x="7710.880000000001" y="3562.31" as="sourcePoint" />
            <mxPoint x="7980" y="3562.31" as="targetPoint" />
          </mxGeometry>
        </mxCell>
        <mxCell id="JzanWbyPBiSka4KLxT4m-8" value="&lt;div style=&quot;text-align: justify;&quot;&gt;&lt;div&gt;&lt;div style=&quot;text-align: center;&quot;&gt;&lt;b&gt;&lt;font style=&quot;font-size: 12px;&quot;&gt;&amp;nbsp;Specimen-to-result Testing&lt;/font&gt;&lt;/b&gt;&lt;/div&gt;&lt;/div&gt;&lt;/div&gt;&lt;div style=&quot;text-align: left;&quot;&gt;&lt;br&gt;&lt;/div&gt;&lt;div style=&quot;text-align: left;&quot;&gt;&lt;br&gt;&lt;/div&gt;&lt;div style=&quot;text-align: left;&quot;&gt;&lt;font style=&quot;font-size: 12px;&quot;&gt;Input: 300uL of whole blood or BM&lt;/font&gt;&lt;/div&gt;&lt;div style=&quot;text-align: left;&quot;&gt;&lt;span style=&quot;background-color: initial;&quot;&gt;&lt;br&gt;&lt;/span&gt;&lt;/div&gt;&lt;div style=&quot;text-align: left;&quot;&gt;&lt;font style=&quot;font-size: 12px;&quot;&gt;&lt;b style=&quot;background-color: initial;&quot;&gt;1.&amp;nbsp;&lt;/b&gt;&lt;b style=&quot;background-color: initial;&quot;&gt;&lt;font style=&quot;&quot;&gt;DNA extraction&lt;/font&gt;&lt;/b&gt;&lt;/font&gt;&lt;br&gt;&lt;/div&gt;&lt;div&gt;&lt;div style=&quot;text-align: left;&quot;&gt;QIAGEN Puregene Blood Core Kit&lt;/div&gt;&lt;div style=&quot;text-align: left;&quot;&gt;&lt;span style=&quot;font-size: 12px;&quot;&gt;&lt;br&gt;&lt;/span&gt;&lt;/div&gt;&lt;div style=&quot;&quot;&gt;&lt;div style=&quot;text-align: left;&quot;&gt;&lt;font style=&quot;font-size: 12px;&quot;&gt;&lt;b style=&quot;&quot;&gt;2. Shearing DNA for 10kb input&lt;/b&gt;&lt;/font&gt;&lt;/div&gt;&lt;div style=&quot;text-align: left;&quot;&gt;Covaris g-TUBE&lt;/div&gt;&lt;div&gt;&lt;span style=&quot;background-color: initial; font-size: 12px;&quot;&gt;&lt;br&gt;&lt;/span&gt;&lt;/div&gt;&lt;div&gt;&lt;div style=&quot;text-align: left;&quot;&gt;&lt;font size=&quot;1&quot;&gt;&lt;b style=&quot;font-size: 12px;&quot;&gt;3.&amp;nbsp;&lt;/b&gt;&lt;/font&gt;&lt;b style=&quot;background-color: initial; font-size: 12px;&quot;&gt;Library Prep&lt;/b&gt;&lt;/div&gt;&lt;div style=&quot;text-align: left;&quot;&gt;Rapid Sequencing kit (SQK-RAD114)&lt;/div&gt;&lt;/div&gt;&lt;div style=&quot;text-align: left;&quot;&gt;&lt;br&gt;&lt;/div&gt;&lt;div style=&quot;text-align: left;&quot;&gt;&lt;div&gt;&lt;b style=&quot;&quot;&gt;&lt;font style=&quot;font-size: 12px;&quot;&gt;4. Long-read Sequencing&lt;/font&gt;&lt;/b&gt;&lt;/div&gt;&lt;div&gt;Oxford Nanopore PromethION 2 solo&lt;/div&gt;&lt;/div&gt;&lt;div&gt;&lt;span style=&quot;font-size: 12px;&quot;&gt;&lt;br&gt;&lt;/span&gt;&lt;/div&gt;&lt;div&gt;&lt;div style=&quot;text-align: left;&quot;&gt;&lt;font style=&quot;font-size: 12px;&quot;&gt;&lt;b style=&quot;&quot;&gt;5. &lt;/b&gt;&lt;b style=&quot;background-color: initial;&quot;&gt;Basecalling (with 5mC)&lt;/b&gt;&lt;/font&gt;&lt;/div&gt;&lt;div style=&quot;text-align: left;&quot;&gt;Dorado, Remora (Epi2me wf-basecalling)&lt;/div&gt;&lt;/div&gt;&lt;div style=&quot;text-align: left;&quot;&gt;&lt;span style=&quot;font-size: 12px;&quot;&gt;&lt;br&gt;&lt;/span&gt;&lt;/div&gt;&lt;div&gt;&lt;div style=&quot;text-align: left;&quot;&gt;&lt;font style=&quot;font-size: 12px;&quot;&gt;&lt;b style=&quot;&quot;&gt;6. Extract SV, SNV, CNV, and 5mC&lt;/b&gt;&lt;/font&gt;&lt;/div&gt;&lt;div style=&quot;text-align: left;&quot;&gt;Modkit (Epi2me wf-human variation)&lt;/div&gt;&lt;/div&gt;&lt;div style=&quot;text-align: left;&quot;&gt;&lt;span style=&quot;font-size: 12px;&quot;&gt;&lt;br&gt;&lt;/span&gt;&lt;/div&gt;&lt;div style=&quot;text-align: left;&quot;&gt;&lt;div&gt;&lt;font size=&quot;1&quot;&gt;&lt;b style=&quot;font-size: 12px;&quot;&gt;7. Harmonize data to array&lt;/b&gt;&lt;/font&gt;&lt;/div&gt;&lt;div&gt;28M CpGs &amp;gt; 333,058 CpGs&lt;/div&gt;&lt;div&gt;&lt;br&gt;&lt;/div&gt;&lt;div&gt;&lt;div&gt;&lt;font size=&quot;1&quot;&gt;&lt;b style=&quot;font-size: 12px;&quot;&gt;8. Apply models to new data&lt;/b&gt;&lt;/font&gt;&lt;/div&gt;&lt;div&gt;PaCMAP &amp;gt; AL Epigenomic Phenotype&lt;/div&gt;&lt;/div&gt;&lt;div&gt;PaCMAP &amp;gt; AML Epigenomic Risk&lt;/div&gt;&lt;div&gt;&lt;br&gt;&lt;/div&gt;&lt;div&gt;&lt;div&gt;&lt;font size=&quot;1&quot;&gt;&lt;b style=&quot;font-size: 12px;&quot;&gt;9. Generate Dx and Px Genomics&lt;/b&gt;&lt;/font&gt;&lt;/div&gt;&lt;/div&gt;&lt;div&gt;SV, SNV, CNV &amp;gt; WHO22&amp;nbsp; guidelines&lt;/div&gt;&lt;div&gt;&lt;br&gt;&lt;/div&gt;&lt;div&gt;&lt;div&gt;&lt;font size=&quot;1&quot;&gt;&lt;b style=&quot;font-size: 12px;&quot;&gt;10. Generate actionable report&lt;/b&gt;&lt;/font&gt;&lt;/div&gt;&lt;div&gt;Available at 5mc.org&lt;/div&gt;&lt;/div&gt;&lt;div&gt;&lt;span style=&quot;font-size: 12px; background-color: initial;&quot;&gt;&lt;br&gt;&lt;/span&gt;&lt;/div&gt;&lt;div&gt;&lt;span style=&quot;font-size: 12px; background-color: initial;&quot;&gt;Output: clinical&lt;/span&gt;&lt;b style=&quot;background-color: initial; font-size: 12px;&quot;&gt;&amp;nbsp;epigenomic&amp;nbsp;&lt;/b&gt;&lt;/div&gt;&lt;div&gt;&lt;font style=&quot;font-size: 12px;&quot;&gt;&lt;b&gt;diagnosis and prognosis&amp;nbsp;&lt;/b&gt;&lt;/font&gt;&lt;/div&gt;&lt;div&gt;&lt;span style=&quot;font-size: 12px;&quot;&gt;for acute leukemia patients.&lt;/span&gt;&lt;/div&gt;&lt;/div&gt;&lt;/div&gt;&lt;/div&gt;" style="rounded=0;whiteSpace=wrap;html=1;fontSize=11;align=center;" parent="1" vertex="1">
          <mxGeometry x="8030" y="3211.13" width="270" height="571.18" as="geometry" />
        </mxCell>
        <mxCell id="JzanWbyPBiSka4KLxT4m-9" value="" style="endArrow=none;html=1;rounded=0;fontSize=12;" parent="1" edge="1">
          <mxGeometry width="50" height="50" relative="1" as="geometry">
            <mxPoint x="8030.880000000001" y="3252.31" as="sourcePoint" />
            <mxPoint x="8300" y="3252.31" as="targetPoint" />
          </mxGeometry>
        </mxCell>
        <mxCell id="JzanWbyPBiSka4KLxT4m-10" style="edgeStyle=orthogonalEdgeStyle;rounded=0;orthogonalLoop=1;jettySize=auto;html=1;exitX=0.5;exitY=1;exitDx=0;exitDy=0;" parent="1" source="JzanWbyPBiSka4KLxT4m-8" target="JzanWbyPBiSka4KLxT4m-8" edge="1">
          <mxGeometry relative="1" as="geometry" />
        </mxCell>
        <mxCell id="JzanWbyPBiSka4KLxT4m-18" value="&lt;div style=&quot;text-align: justify;&quot;&gt;&lt;div style=&quot;text-align: center;&quot;&gt;&lt;b style=&quot;font-size: 12px;&quot;&gt;(Jan 2024) EWAS-Cox OS 48&lt;/b&gt;&lt;br&gt;&lt;/div&gt;&lt;/div&gt;&lt;div style=&quot;text-align: left;&quot;&gt;&lt;br&gt;&lt;/div&gt;&lt;div style=&quot;text-align: left;&quot;&gt;&lt;br&gt;&lt;/div&gt;&lt;div style=&quot;text-align: left;&quot;&gt;&lt;font style=&quot;font-size: 12px;&quot;&gt;Input: 3308 samples with 333,058 CpGs&lt;/font&gt;&lt;/div&gt;&lt;div style=&quot;text-align: left;&quot;&gt;&lt;span style=&quot;background-color: initial;&quot;&gt;&lt;br&gt;&lt;/span&gt;&lt;/div&gt;&lt;div style=&quot;text-align: left;&quot;&gt;&lt;font style=&quot;font-size: 12px;&quot;&gt;&lt;b style=&quot;background-color: initial;&quot;&gt;1. Select AAML1031, 0531, 03P1 trials&lt;/b&gt;&lt;/font&gt;&lt;br&gt;&lt;/div&gt;&lt;div&gt;&lt;div style=&quot;text-align: left;&quot;&gt;&lt;span style=&quot;background-color: initial;&quot;&gt;2027 samples&amp;nbsp;&lt;/span&gt;removed&lt;br&gt;&lt;/div&gt;&lt;div style=&quot;text-align: left;&quot;&gt;&lt;span style=&quot;font-size: 12px;&quot;&gt;&lt;br&gt;&lt;/span&gt;&lt;/div&gt;&lt;div style=&quot;&quot;&gt;&lt;div style=&quot;text-align: left;&quot;&gt;&lt;font style=&quot;font-size: 12px;&quot;&gt;&lt;b style=&quot;&quot;&gt;2. Exclude non-diagnostic samples&lt;/b&gt;&lt;/font&gt;&lt;/div&gt;&lt;div style=&quot;text-align: left;&quot;&gt;&lt;font style=&quot;font-size: 11px;&quot;&gt;332 samples&amp;nbsp;&lt;/font&gt;removed&lt;/div&gt;&lt;div&gt;&lt;span style=&quot;background-color: initial; font-size: 12px;&quot;&gt;&lt;br&gt;&lt;/span&gt;&lt;/div&gt;&lt;div&gt;&lt;div style=&quot;text-align: left;&quot;&gt;&lt;font size=&quot;1&quot;&gt;&lt;b style=&quot;font-size: 12px;&quot;&gt;3.&amp;nbsp;&lt;/b&gt;&lt;/font&gt;&lt;b style=&quot;background-color: initial; font-size: 12px;&quot;&gt;Exclude patient duplicates&lt;/b&gt;&lt;/div&gt;&lt;div style=&quot;text-align: left;&quot;&gt;&lt;font style=&quot;font-size: 11px;&quot;&gt;9 samples&amp;nbsp;&lt;/font&gt;removed&lt;/div&gt;&lt;div style=&quot;text-align: left;&quot;&gt;&lt;font style=&quot;font-size: 11px;&quot;&gt;(940 samples remaining)&lt;/font&gt;&lt;/div&gt;&lt;/div&gt;&lt;div style=&quot;text-align: left;&quot;&gt;&lt;br&gt;&lt;/div&gt;&lt;div style=&quot;text-align: left;&quot;&gt;&lt;div&gt;&lt;b style=&quot;&quot;&gt;&lt;font style=&quot;font-size: 12px;&quot;&gt;4. Transform CpG values&lt;/font&gt;&lt;/b&gt;&lt;/div&gt;&lt;div&gt;&lt;font style=&quot;font-size: 11px;&quot;&gt;M =&amp;nbsp;log&lt;sub style=&quot;background-color: initial;&quot;&gt;2&lt;/sub&gt;&lt;span style=&quot;background-color: initial;&quot;&gt;(Beta/(1-Beta)) (PMID: 21118553)&lt;/span&gt;&lt;/font&gt;&lt;/div&gt;&lt;/div&gt;&lt;div&gt;&lt;span style=&quot;font-size: 12px;&quot;&gt;&lt;br&gt;&lt;/span&gt;&lt;/div&gt;&lt;div&gt;&lt;div style=&quot;text-align: left;&quot;&gt;&lt;font style=&quot;font-size: 12px;&quot;&gt;&lt;b style=&quot;&quot;&gt;5. Run&lt;/b&gt;&lt;/font&gt;&lt;b style=&quot;background-color: initial; font-size: 12px;&quot;&gt;&amp;nbsp;batch correction&lt;/b&gt;&lt;/div&gt;&lt;div style=&quot;text-align: left;&quot;&gt;pyComBat (PMID: 16632515)&lt;/div&gt;&lt;div style=&quot;text-align: left;&quot;&gt;&lt;br&gt;&lt;/div&gt;&lt;/div&gt;&lt;div&gt;&lt;div style=&quot;text-align: left;&quot;&gt;&lt;font style=&quot;font-size: 12px;&quot;&gt;&lt;b style=&quot;&quot;&gt;6. Run survival EWAS&lt;/b&gt;&lt;/font&gt;&lt;/div&gt;&lt;div style=&quot;text-align: left;&quot;&gt;333,058 Cox PH regressions&lt;/div&gt;&lt;div style=&quot;text-align: left;&quot;&gt;&lt;b&gt;Risk group AAML1831 as covariates&lt;/b&gt;&lt;/div&gt;&lt;div style=&quot;text-align: left;&quot;&gt;Overall survival (OS) as outcome&lt;/div&gt;&lt;div style=&quot;text-align: left;&quot;&gt;&lt;b&gt;10e-5&lt;/b&gt; suggestive statistical significance&lt;/div&gt;&lt;/div&gt;&lt;div style=&quot;text-align: left;&quot;&gt;= &lt;b&gt;189 &lt;/b&gt;CpGs remaining&lt;/div&gt;&lt;div style=&quot;text-align: left;&quot;&gt;&lt;span style=&quot;font-size: 12px;&quot;&gt;&lt;br&gt;&lt;/span&gt;&lt;/div&gt;&lt;div style=&quot;text-align: left;&quot;&gt;&lt;div&gt;&lt;font size=&quot;1&quot;&gt;&lt;b style=&quot;font-size: 12px;&quot;&gt;7. Standardize CpG values&lt;/b&gt;&lt;/font&gt;&lt;/div&gt;&lt;div&gt;(x - x.mean) / (x.std)&lt;br&gt;&lt;/div&gt;&lt;div&gt;&lt;br&gt;&lt;/div&gt;&lt;div&gt;&lt;div&gt;&lt;font size=&quot;1&quot;&gt;&lt;b style=&quot;font-size: 12px;&quot;&gt;8. Run Cox PH with LASSO&lt;/b&gt;&lt;/font&gt;&lt;/div&gt;&lt;div&gt;&lt;div style=&quot;text-align: center;&quot;&gt;&lt;div style=&quot;text-align: justify;&quot;&gt;&lt;span style=&quot;background-color: initial;&quot;&gt;&lt;font style=&quot;font-size: 11px;&quot;&gt;OS outcome,10 fold-CV, 1000 loops&lt;/font&gt;&lt;/span&gt;&lt;br&gt;&lt;/div&gt;&lt;/div&gt;&lt;div style=&quot;text-align: justify;&quot;&gt;&lt;font style=&quot;font-size: 11px;&quot;&gt;Binarize predictions by recursive partitioning&lt;/font&gt;&lt;/div&gt;&lt;/div&gt;&lt;/div&gt;&lt;div style=&quot;text-align: justify;&quot;&gt;&lt;font style=&quot;font-size: 11px;&quot;&gt;= 48 CpGs remaining&lt;/font&gt;&lt;/div&gt;&lt;div&gt;&lt;br&gt;&lt;/div&gt;&lt;div&gt;&lt;br&gt;&lt;/div&gt;&lt;div&gt;&lt;font style=&quot;background-color: initial; font-size: 12px;&quot;&gt;Output:&amp;nbsp;&lt;/font&gt;&lt;b style=&quot;background-color: initial; font-size: 12px; text-align: center;&quot;&gt;MethylScoreAML Px&lt;/b&gt;&lt;br&gt;&lt;/div&gt;&lt;div&gt;A &lt;b&gt;48-CpG&lt;/b&gt; prognostic risk score for AML&lt;b style=&quot;background-color: initial; font-size: 12px; text-align: center;&quot;&gt;&lt;br&gt;&lt;/b&gt;&lt;/div&gt;&lt;div&gt;&lt;br&gt;&lt;/div&gt;&lt;/div&gt;&lt;/div&gt;&lt;/div&gt;" style="rounded=0;whiteSpace=wrap;html=1;fontSize=11;align=center;" parent="1" vertex="1">
          <mxGeometry x="7350" y="4050" width="270" height="571" as="geometry" />
        </mxCell>
        <mxCell id="JzanWbyPBiSka4KLxT4m-19" value="" style="endArrow=none;html=1;rounded=0;fontSize=12;" parent="1" edge="1">
          <mxGeometry width="50" height="50" relative="1" as="geometry">
            <mxPoint x="7350.880000000001" y="4091" as="sourcePoint" />
            <mxPoint x="7620" y="4091" as="targetPoint" />
          </mxGeometry>
        </mxCell>
        <mxCell id="JzanWbyPBiSka4KLxT4m-20" value="&lt;span style=&quot;font-size: 36px;&quot;&gt;Px Models Benchmark Strategy&lt;/span&gt;" style="text;html=1;strokeColor=none;fillColor=none;align=center;verticalAlign=middle;whiteSpace=wrap;rounded=0;" parent="1" vertex="1">
          <mxGeometry x="7081" y="3950" width="509" height="30" as="geometry" />
        </mxCell>
        <mxCell id="JzanWbyPBiSka4KLxT4m-21" value="&lt;div style=&quot;text-align: justify;&quot;&gt;&lt;div style=&quot;text-align: center;&quot;&gt;&lt;b style=&quot;font-size: 12px;&quot;&gt;(ASH 2023) EWAS-Cox OS 35&lt;/b&gt;&lt;br&gt;&lt;/div&gt;&lt;/div&gt;&lt;div style=&quot;text-align: left;&quot;&gt;&lt;br&gt;&lt;/div&gt;&lt;div style=&quot;text-align: left;&quot;&gt;&lt;br&gt;&lt;/div&gt;&lt;div style=&quot;text-align: left;&quot;&gt;&lt;font style=&quot;font-size: 12px;&quot;&gt;Input: 3330 samples with 333,351 CpGs&lt;/font&gt;&lt;/div&gt;&lt;div style=&quot;text-align: left;&quot;&gt;&lt;span style=&quot;background-color: initial;&quot;&gt;&lt;br&gt;&lt;/span&gt;&lt;/div&gt;&lt;div style=&quot;text-align: left;&quot;&gt;&lt;font style=&quot;font-size: 12px;&quot;&gt;&lt;b style=&quot;background-color: initial;&quot;&gt;1. Select AAML1031, 0531, 03P1 trials&lt;/b&gt;&lt;/font&gt;&lt;br&gt;&lt;/div&gt;&lt;div&gt;&lt;div style=&quot;text-align: left;&quot;&gt;&lt;span style=&quot;background-color: initial;&quot;&gt;2049 samples&amp;nbsp;&lt;/span&gt;removed&lt;br&gt;&lt;/div&gt;&lt;div style=&quot;text-align: left;&quot;&gt;&lt;span style=&quot;font-size: 12px;&quot;&gt;&lt;br&gt;&lt;/span&gt;&lt;/div&gt;&lt;div style=&quot;&quot;&gt;&lt;div style=&quot;text-align: left;&quot;&gt;&lt;font style=&quot;font-size: 12px;&quot;&gt;&lt;b style=&quot;&quot;&gt;2. Exclude non-diagnostic samples&lt;/b&gt;&lt;/font&gt;&lt;/div&gt;&lt;div style=&quot;text-align: left;&quot;&gt;&lt;font style=&quot;font-size: 11px;&quot;&gt;350 samples&amp;nbsp;&lt;/font&gt;removed&lt;/div&gt;&lt;div&gt;&lt;span style=&quot;background-color: initial; font-size: 12px;&quot;&gt;&lt;br&gt;&lt;/span&gt;&lt;/div&gt;&lt;div&gt;&lt;div style=&quot;text-align: left;&quot;&gt;&lt;font size=&quot;1&quot;&gt;&lt;b style=&quot;font-size: 12px;&quot;&gt;3.&amp;nbsp;&lt;/b&gt;&lt;/font&gt;&lt;b style=&quot;background-color: initial; font-size: 12px;&quot;&gt;Exclude patient duplicates&lt;/b&gt;&lt;/div&gt;&lt;div style=&quot;text-align: left;&quot;&gt;&lt;font style=&quot;font-size: 11px;&quot;&gt;7 samples&amp;nbsp;&lt;/font&gt;removed&lt;/div&gt;&lt;div style=&quot;text-align: left;&quot;&gt;&lt;font style=&quot;font-size: 11px;&quot;&gt;(924 samples remaining)&lt;/font&gt;&lt;/div&gt;&lt;/div&gt;&lt;div style=&quot;text-align: left;&quot;&gt;&lt;br&gt;&lt;/div&gt;&lt;div style=&quot;text-align: left;&quot;&gt;&lt;div&gt;&lt;b style=&quot;&quot;&gt;&lt;font style=&quot;font-size: 12px;&quot;&gt;4. Transform CpG values&lt;/font&gt;&lt;/b&gt;&lt;/div&gt;&lt;div&gt;&lt;font style=&quot;font-size: 11px;&quot;&gt;M =&amp;nbsp;log&lt;sub style=&quot;background-color: initial;&quot;&gt;2&lt;/sub&gt;&lt;span style=&quot;background-color: initial;&quot;&gt;(Beta/(1-Beta)) (PMID: 21118553)&lt;/span&gt;&lt;/font&gt;&lt;/div&gt;&lt;/div&gt;&lt;div&gt;&lt;span style=&quot;font-size: 12px;&quot;&gt;&lt;br&gt;&lt;/span&gt;&lt;/div&gt;&lt;div&gt;&lt;div style=&quot;text-align: left;&quot;&gt;&lt;font style=&quot;font-size: 12px;&quot;&gt;&lt;b style=&quot;&quot;&gt;5. Run&lt;/b&gt;&lt;/font&gt;&lt;b style=&quot;background-color: initial; font-size: 12px;&quot;&gt;&amp;nbsp;batch correction&lt;/b&gt;&lt;/div&gt;&lt;div style=&quot;text-align: left;&quot;&gt;pyComBat (PMID: 16632515)&lt;/div&gt;&lt;div style=&quot;text-align: left;&quot;&gt;&lt;br&gt;&lt;/div&gt;&lt;/div&gt;&lt;div&gt;&lt;div style=&quot;text-align: left;&quot;&gt;&lt;font style=&quot;font-size: 12px;&quot;&gt;&lt;b style=&quot;&quot;&gt;6. Run survival EWAS&lt;/b&gt;&lt;/font&gt;&lt;/div&gt;&lt;div style=&quot;text-align: left;&quot;&gt;333,351 Cox PH regressions&lt;/div&gt;&lt;div style=&quot;text-align: left;&quot;&gt;Risk group as covariates&lt;/div&gt;&lt;div style=&quot;text-align: left;&quot;&gt;Overall survival (OS) as outcome&lt;/div&gt;&lt;div style=&quot;text-align: left;&quot;&gt;10e-6 suggestive statistical significance&lt;/div&gt;&lt;/div&gt;&lt;div style=&quot;text-align: left;&quot;&gt;= 167 CpGs remaining&lt;/div&gt;&lt;div style=&quot;text-align: left;&quot;&gt;&lt;span style=&quot;font-size: 12px;&quot;&gt;&lt;br&gt;&lt;/span&gt;&lt;/div&gt;&lt;div style=&quot;text-align: left;&quot;&gt;&lt;div&gt;&lt;font size=&quot;1&quot;&gt;&lt;b style=&quot;font-size: 12px;&quot;&gt;7. Standardize CpG values&lt;/b&gt;&lt;/font&gt;&lt;/div&gt;&lt;div&gt;(x - x.mean) / (x.std)&lt;br&gt;&lt;/div&gt;&lt;div&gt;&lt;br&gt;&lt;/div&gt;&lt;div&gt;&lt;div&gt;&lt;font size=&quot;1&quot;&gt;&lt;b style=&quot;font-size: 12px;&quot;&gt;8. Run Cox PH with LASSO&lt;/b&gt;&lt;/font&gt;&lt;/div&gt;&lt;div&gt;&lt;div style=&quot;text-align: center;&quot;&gt;&lt;div style=&quot;text-align: justify;&quot;&gt;&lt;span style=&quot;background-color: initial;&quot;&gt;&lt;font style=&quot;font-size: 11px;&quot;&gt;OS outcome,10 fold-CV, 1000 loops&lt;/font&gt;&lt;/span&gt;&lt;br&gt;&lt;/div&gt;&lt;/div&gt;&lt;div style=&quot;text-align: justify;&quot;&gt;&lt;font style=&quot;font-size: 11px;&quot;&gt;Binarize predictions by recursive partitioning&lt;/font&gt;&lt;/div&gt;&lt;/div&gt;&lt;/div&gt;&lt;div style=&quot;text-align: justify;&quot;&gt;&lt;font style=&quot;font-size: 11px;&quot;&gt;= 35 CpGs remaining&lt;/font&gt;&lt;/div&gt;&lt;div&gt;&lt;br&gt;&lt;/div&gt;&lt;div&gt;&lt;br&gt;&lt;/div&gt;&lt;div&gt;&lt;font style=&quot;background-color: initial; font-size: 12px;&quot;&gt;Output:&amp;nbsp;&lt;/font&gt;&lt;b style=&quot;background-color: initial; font-size: 12px; text-align: center;&quot;&gt;MethylScoreAML Px&lt;/b&gt;&lt;br&gt;&lt;/div&gt;&lt;div&gt;A 35-CpG prognostic risk score for AML&lt;b style=&quot;background-color: initial; font-size: 12px; text-align: center;&quot;&gt;&lt;br&gt;&lt;/b&gt;&lt;/div&gt;&lt;div&gt;&lt;br&gt;&lt;/div&gt;&lt;/div&gt;&lt;/div&gt;&lt;/div&gt;" style="rounded=0;whiteSpace=wrap;html=1;fontSize=11;align=center;" parent="1" vertex="1">
          <mxGeometry x="7060" y="4050" width="270" height="571" as="geometry" />
        </mxCell>
        <mxCell id="JzanWbyPBiSka4KLxT4m-22" value="" style="endArrow=none;html=1;rounded=0;fontSize=12;" parent="1" edge="1">
          <mxGeometry width="50" height="50" relative="1" as="geometry">
            <mxPoint x="7060.88" y="4091" as="sourcePoint" />
            <mxPoint x="7330" y="4091" as="targetPoint" />
          </mxGeometry>
        </mxCell>
        <mxCell id="JzanWbyPBiSka4KLxT4m-25" value="&lt;div style=&quot;text-align: justify;&quot;&gt;&lt;div style=&quot;text-align: center;&quot;&gt;&lt;b style=&quot;font-size: 12px;&quot;&gt;(Feb 2024) PaCMAP-LGBM OS&amp;nbsp;&lt;/b&gt;&lt;br&gt;&lt;/div&gt;&lt;div style=&quot;text-align: center;&quot;&gt;&lt;b style=&quot;font-size: 12px;&quot;&gt;&lt;br&gt;&lt;/b&gt;&lt;/div&gt;&lt;/div&gt;&lt;div style=&quot;text-align: left;&quot;&gt;&lt;br&gt;&lt;/div&gt;&lt;div style=&quot;text-align: left;&quot;&gt;&lt;font style=&quot;font-size: 12px;&quot;&gt;Input: 3308 samples with 333,058 CpGs&lt;/font&gt;&lt;/div&gt;&lt;div&gt;&lt;div style=&quot;&quot;&gt;&lt;div&gt;&lt;span style=&quot;background-color: initial; font-size: 12px;&quot;&gt;&lt;br&gt;&lt;/span&gt;&lt;/div&gt;&lt;div&gt;&lt;div style=&quot;text-align: left;&quot;&gt;&lt;font size=&quot;1&quot;&gt;&lt;b style=&quot;font-size: 12px;&quot;&gt;1. Devise Acute Leukemia Atlas&lt;/b&gt;&lt;/font&gt;&lt;/div&gt;&lt;div style=&quot;text-align: left;&quot;&gt;&lt;div style=&quot;text-align: center;&quot;&gt;&lt;div style=&quot;text-align: left;&quot;&gt;PaCMAP (JMLR:v22-20-1061)&lt;/div&gt;&lt;div style=&quot;text-align: left;&quot;&gt;Large-scale dimension reduction&lt;/div&gt;&lt;/div&gt;&lt;div&gt;Unsupervised model&lt;/div&gt;&lt;/div&gt;&lt;/div&gt;&lt;div style=&quot;text-align: left;&quot;&gt;&lt;span style=&quot;background-color: initial;&quot;&gt;&lt;font style=&quot;font-size: 11px;&quot;&gt;&lt;br&gt;&lt;/font&gt;&lt;/span&gt;&lt;/div&gt;&lt;div style=&quot;text-align: left;&quot;&gt;&lt;div&gt;&lt;font style=&quot;font-size: 12px;&quot;&gt;&lt;b style=&quot;background-color: initial;&quot;&gt;2. Select samples with vital status&lt;/b&gt;&lt;/font&gt;&lt;br&gt;&lt;/div&gt;&lt;div style=&quot;text-align: center;&quot;&gt;&lt;div style=&quot;text-align: left;&quot;&gt;1797 samples had overall survival info&lt;br&gt;&lt;/div&gt;&lt;div style=&quot;text-align: left;&quot;&gt;&lt;span style=&quot;font-size: 12px;&quot;&gt;&lt;br&gt;&lt;/span&gt;&lt;/div&gt;&lt;div&gt;&lt;div style=&quot;text-align: left;&quot;&gt;&lt;font style=&quot;font-size: 12px;&quot;&gt;&lt;b&gt;3. Devise supervised model&lt;/b&gt;&lt;/font&gt;&lt;/div&gt;&lt;div&gt;&lt;div style=&quot;text-align: left;&quot;&gt;&lt;div style=&quot;text-align: center;&quot;&gt;&lt;div style=&quot;text-align: left;&quot;&gt;5 PaCMAP coordinates as input&lt;/div&gt;&lt;/div&gt;&lt;div&gt;Overall survival as target output&lt;/div&gt;&lt;div&gt;Grid search, 10-fold CV, regularization&lt;/div&gt;&lt;div&gt;LightGBM Classifier (Microsoft, 2017)&lt;/div&gt;&lt;/div&gt;&lt;/div&gt;&lt;div style=&quot;text-align: left;&quot;&gt;&lt;div&gt;&lt;br&gt;&lt;/div&gt;&lt;div&gt;&lt;font style=&quot;background-color: initial; font-size: 12px;&quot;&gt;Output:&amp;nbsp;&lt;/font&gt;&lt;b style=&quot;background-color: initial; font-size: 12px; text-align: center;&quot;&gt;AML Epigenomic Risk&lt;/b&gt;&lt;br&gt;&lt;/div&gt;&lt;div&gt;A prognostic risk score for AML&lt;/div&gt;&lt;div&gt;&lt;br&gt;&lt;/div&gt;&lt;div&gt;&lt;br&gt;&lt;/div&gt;&lt;div&gt;&lt;br&gt;&lt;/div&gt;&lt;div&gt;&lt;br&gt;&lt;/div&gt;&lt;div&gt;&lt;br&gt;&lt;/div&gt;&lt;div&gt;&lt;br&gt;&lt;/div&gt;&lt;div&gt;&lt;br&gt;&lt;/div&gt;&lt;div&gt;&lt;br&gt;&lt;/div&gt;&lt;div&gt;&lt;br&gt;&lt;/div&gt;&lt;div&gt;&lt;br&gt;&lt;/div&gt;&lt;div&gt;&lt;br&gt;&lt;/div&gt;&lt;div&gt;&lt;br&gt;&lt;/div&gt;&lt;div&gt;&lt;br&gt;&lt;/div&gt;&lt;div&gt;&lt;br&gt;&lt;/div&gt;&lt;div&gt;&lt;br&gt;&lt;/div&gt;&lt;div&gt;&lt;br&gt;&lt;/div&gt;&lt;div&gt;&lt;br&gt;&lt;/div&gt;&lt;div&gt;&lt;br&gt;&lt;/div&gt;&lt;div&gt;&lt;br&gt;&lt;/div&gt;&lt;/div&gt;&lt;/div&gt;&lt;/div&gt;&lt;/div&gt;&lt;/div&gt;&lt;/div&gt;" style="rounded=0;whiteSpace=wrap;html=1;fontSize=11;align=center;" parent="1" vertex="1">
          <mxGeometry x="7931" y="4050" width="270" height="570" as="geometry" />
        </mxCell>
        <mxCell id="JzanWbyPBiSka4KLxT4m-26" value="" style="endArrow=none;html=1;rounded=0;fontSize=12;" parent="1" edge="1">
          <mxGeometry width="50" height="50" relative="1" as="geometry">
            <mxPoint x="7931.880000000001" y="4090" as="sourcePoint" />
            <mxPoint x="8201" y="4090" as="targetPoint" />
          </mxGeometry>
        </mxCell>
        <mxCell id="JzanWbyPBiSka4KLxT4m-55" value="&lt;div style=&quot;text-align: justify;&quot;&gt;&lt;div style=&quot;text-align: center;&quot;&gt;&lt;b style=&quot;font-size: 12px;&quot;&gt;(Jan 2024) EWAS-Cox EFS 55&lt;/b&gt;&lt;br&gt;&lt;/div&gt;&lt;/div&gt;&lt;div style=&quot;text-align: left;&quot;&gt;&lt;br&gt;&lt;/div&gt;&lt;div style=&quot;text-align: left;&quot;&gt;&lt;br&gt;&lt;/div&gt;&lt;div style=&quot;text-align: left;&quot;&gt;&lt;font style=&quot;font-size: 12px;&quot;&gt;Input: 3308 samples with 333,058 CpGs&lt;/font&gt;&lt;/div&gt;&lt;div style=&quot;text-align: left;&quot;&gt;&lt;span style=&quot;background-color: initial;&quot;&gt;&lt;br&gt;&lt;/span&gt;&lt;/div&gt;&lt;div style=&quot;text-align: left;&quot;&gt;&lt;font style=&quot;font-size: 12px;&quot;&gt;&lt;b style=&quot;background-color: initial;&quot;&gt;1. Select AAML1031, 0531, 03P1 trials&lt;/b&gt;&lt;/font&gt;&lt;br&gt;&lt;/div&gt;&lt;div&gt;&lt;div style=&quot;text-align: left;&quot;&gt;&lt;span style=&quot;background-color: initial;&quot;&gt;2027 samples&amp;nbsp;&lt;/span&gt;removed&lt;br&gt;&lt;/div&gt;&lt;div style=&quot;text-align: left;&quot;&gt;&lt;span style=&quot;font-size: 12px;&quot;&gt;&lt;br&gt;&lt;/span&gt;&lt;/div&gt;&lt;div style=&quot;&quot;&gt;&lt;div style=&quot;text-align: left;&quot;&gt;&lt;font style=&quot;font-size: 12px;&quot;&gt;&lt;b style=&quot;&quot;&gt;2. Exclude non-diagnostic samples&lt;/b&gt;&lt;/font&gt;&lt;/div&gt;&lt;div style=&quot;text-align: left;&quot;&gt;&lt;font style=&quot;font-size: 11px;&quot;&gt;332 samples&amp;nbsp;&lt;/font&gt;removed&lt;/div&gt;&lt;div&gt;&lt;span style=&quot;background-color: initial; font-size: 12px;&quot;&gt;&lt;br&gt;&lt;/span&gt;&lt;/div&gt;&lt;div&gt;&lt;div style=&quot;text-align: left;&quot;&gt;&lt;font size=&quot;1&quot;&gt;&lt;b style=&quot;font-size: 12px;&quot;&gt;3.&amp;nbsp;&lt;/b&gt;&lt;/font&gt;&lt;b style=&quot;background-color: initial; font-size: 12px;&quot;&gt;Exclude patient duplicates&lt;/b&gt;&lt;/div&gt;&lt;div style=&quot;text-align: left;&quot;&gt;&lt;font style=&quot;font-size: 11px;&quot;&gt;9 samples&amp;nbsp;&lt;/font&gt;removed&lt;/div&gt;&lt;div style=&quot;text-align: left;&quot;&gt;&lt;font style=&quot;font-size: 11px;&quot;&gt;(940 samples remaining)&lt;/font&gt;&lt;/div&gt;&lt;/div&gt;&lt;div style=&quot;text-align: left;&quot;&gt;&lt;br&gt;&lt;/div&gt;&lt;div style=&quot;text-align: left;&quot;&gt;&lt;div&gt;&lt;b style=&quot;&quot;&gt;&lt;font style=&quot;font-size: 12px;&quot;&gt;4. Transform CpG values&lt;/font&gt;&lt;/b&gt;&lt;/div&gt;&lt;div&gt;&lt;font style=&quot;font-size: 11px;&quot;&gt;M =&amp;nbsp;log&lt;sub style=&quot;background-color: initial;&quot;&gt;2&lt;/sub&gt;&lt;span style=&quot;background-color: initial;&quot;&gt;(Beta/(1-Beta)) (PMID: 21118553)&lt;/span&gt;&lt;/font&gt;&lt;/div&gt;&lt;/div&gt;&lt;div&gt;&lt;span style=&quot;font-size: 12px;&quot;&gt;&lt;br&gt;&lt;/span&gt;&lt;/div&gt;&lt;div&gt;&lt;div style=&quot;text-align: left;&quot;&gt;&lt;font style=&quot;font-size: 12px;&quot;&gt;&lt;b style=&quot;&quot;&gt;5. Run&lt;/b&gt;&lt;/font&gt;&lt;b style=&quot;background-color: initial; font-size: 12px;&quot;&gt;&amp;nbsp;batch correction&lt;/b&gt;&lt;/div&gt;&lt;div style=&quot;text-align: left;&quot;&gt;pyComBat (PMID: 16632515)&lt;/div&gt;&lt;div style=&quot;text-align: left;&quot;&gt;&lt;br&gt;&lt;/div&gt;&lt;/div&gt;&lt;div&gt;&lt;div style=&quot;text-align: left;&quot;&gt;&lt;font style=&quot;font-size: 12px;&quot;&gt;&lt;b style=&quot;&quot;&gt;6. Run survival EWAS&lt;/b&gt;&lt;/font&gt;&lt;/div&gt;&lt;div style=&quot;text-align: left;&quot;&gt;333,058 Cox PH regressions&lt;/div&gt;&lt;div style=&quot;text-align: left;&quot;&gt;&lt;b&gt;Risk group AAML1831 as covariates&lt;/b&gt;&lt;/div&gt;&lt;div style=&quot;text-align: left;&quot;&gt;&lt;b&gt;Event-free survival (EFS)&lt;/b&gt; as outcome&lt;/div&gt;&lt;div style=&quot;text-align: left;&quot;&gt;&lt;b&gt;10e-5&lt;/b&gt; suggestive statistical significance&lt;/div&gt;&lt;/div&gt;&lt;div style=&quot;text-align: left;&quot;&gt;= &lt;b&gt;112&amp;nbsp;&lt;/b&gt;CpGs remaining&lt;/div&gt;&lt;div style=&quot;text-align: left;&quot;&gt;&lt;span style=&quot;font-size: 12px;&quot;&gt;&lt;br&gt;&lt;/span&gt;&lt;/div&gt;&lt;div style=&quot;text-align: left;&quot;&gt;&lt;div&gt;&lt;font size=&quot;1&quot;&gt;&lt;b style=&quot;font-size: 12px;&quot;&gt;7. Standardize CpG values&lt;/b&gt;&lt;/font&gt;&lt;/div&gt;&lt;div&gt;(x - x.mean) / (x.std)&lt;br&gt;&lt;/div&gt;&lt;div&gt;&lt;br&gt;&lt;/div&gt;&lt;div&gt;&lt;div&gt;&lt;font size=&quot;1&quot;&gt;&lt;b style=&quot;font-size: 12px;&quot;&gt;8. Run Cox PH with LASSO&lt;/b&gt;&lt;/font&gt;&lt;/div&gt;&lt;div&gt;&lt;div style=&quot;text-align: center;&quot;&gt;&lt;div style=&quot;text-align: justify;&quot;&gt;&lt;span style=&quot;background-color: initial;&quot;&gt;&lt;font style=&quot;font-size: 11px;&quot;&gt;OS outcome,10 fold-CV, 1000 loops&lt;/font&gt;&lt;/span&gt;&lt;br&gt;&lt;/div&gt;&lt;/div&gt;&lt;div style=&quot;text-align: justify;&quot;&gt;&lt;font style=&quot;font-size: 11px;&quot;&gt;Binarize predictions by recursive partitioning&lt;/font&gt;&lt;/div&gt;&lt;/div&gt;&lt;/div&gt;&lt;div style=&quot;text-align: justify;&quot;&gt;&lt;font style=&quot;font-size: 11px;&quot;&gt;= 55 CpGs remaining&lt;/font&gt;&lt;/div&gt;&lt;div&gt;&lt;br&gt;&lt;/div&gt;&lt;div&gt;&lt;br&gt;&lt;/div&gt;&lt;div&gt;&lt;font style=&quot;background-color: initial; font-size: 12px;&quot;&gt;Output:&amp;nbsp;&lt;/font&gt;&lt;b style=&quot;background-color: initial; font-size: 12px; text-align: center;&quot;&gt;MethylScoreAML Px&lt;/b&gt;&lt;br&gt;&lt;/div&gt;&lt;div&gt;A &lt;b&gt;55-CpG&lt;/b&gt; prognostic risk score for AML&lt;b style=&quot;background-color: initial; font-size: 12px; text-align: center;&quot;&gt;&lt;br&gt;&lt;/b&gt;&lt;/div&gt;&lt;div&gt;&lt;br&gt;&lt;/div&gt;&lt;/div&gt;&lt;/div&gt;&lt;/div&gt;" style="rounded=0;whiteSpace=wrap;html=1;fontSize=11;align=center;" parent="1" vertex="1">
          <mxGeometry x="7640" y="4050" width="270" height="571" as="geometry" />
        </mxCell>
        <mxCell id="JzanWbyPBiSka4KLxT4m-56" value="" style="endArrow=none;html=1;rounded=0;fontSize=12;" parent="1" edge="1">
          <mxGeometry width="50" height="50" relative="1" as="geometry">
            <mxPoint x="7640.880000000001" y="4091" as="sourcePoint" />
            <mxPoint x="7910" y="4091" as="targetPoint" />
          </mxGeometry>
        </mxCell>
        <mxCell id="p5nluhM-51DTkeER_7es-12" value="" style="edgeStyle=orthogonalEdgeStyle;rounded=0;orthogonalLoop=1;jettySize=auto;html=1;" parent="1" source="p5nluhM-51DTkeER_7es-1" target="p5nluhM-51DTkeER_7es-4" edge="1">
          <mxGeometry relative="1" as="geometry">
            <Array as="points">
              <mxPoint x="8805" y="3478.05" />
              <mxPoint x="8665" y="3478.05" />
            </Array>
          </mxGeometry>
        </mxCell>
        <mxCell id="p5nluhM-51DTkeER_7es-1" value="&lt;div style=&quot;text-align: justify;&quot;&gt;&lt;div&gt;&lt;div style=&quot;text-align: center;&quot;&gt;&lt;b&gt;&lt;font style=&quot;font-size: 12px;&quot;&gt;&amp;nbsp;Specimen-to-result Workflow&lt;/font&gt;&lt;/b&gt;&lt;/div&gt;&lt;/div&gt;&lt;/div&gt;&lt;div style=&quot;text-align: left;&quot;&gt;&lt;br&gt;&lt;/div&gt;&lt;div style=&quot;text-align: left;&quot;&gt;&lt;br&gt;&lt;/div&gt;&lt;div style=&quot;text-align: left;&quot;&gt;&lt;font style=&quot;font-size: 12px;&quot;&gt;Input: 300uL of fresh PB or BM&lt;/font&gt;&lt;/div&gt;&lt;div style=&quot;text-align: left;&quot;&gt;&lt;span style=&quot;background-color: initial;&quot;&gt;&lt;br&gt;&lt;/span&gt;&lt;/div&gt;&lt;div style=&quot;text-align: left;&quot;&gt;&lt;font style=&quot;font-size: 12px;&quot;&gt;&lt;b style=&quot;background-color: initial;&quot;&gt;1.&amp;nbsp;&lt;/b&gt;&lt;b style=&quot;background-color: initial;&quot;&gt;&lt;font style=&quot;&quot;&gt;DNA extraction&lt;/font&gt;&lt;/b&gt;&lt;/font&gt;&lt;br&gt;&lt;/div&gt;&lt;div&gt;&lt;div style=&quot;text-align: left;&quot;&gt;Optimized QIAGEN Puregene Blood Kit&lt;/div&gt;&lt;div style=&quot;text-align: left;&quot;&gt;&lt;span style=&quot;font-size: 12px;&quot;&gt;&lt;br&gt;&lt;/span&gt;&lt;/div&gt;&lt;div style=&quot;&quot;&gt;&lt;div style=&quot;text-align: left;&quot;&gt;&lt;font style=&quot;font-size: 12px;&quot;&gt;&lt;b style=&quot;&quot;&gt;2. Shearing DNA for 10kb input&lt;/b&gt;&lt;/font&gt;&lt;/div&gt;&lt;div style=&quot;text-align: left;&quot;&gt;26G 0.5in needle + 1cc syringe&lt;/div&gt;&lt;div&gt;&lt;span style=&quot;background-color: initial; font-size: 12px;&quot;&gt;&lt;br&gt;&lt;/span&gt;&lt;/div&gt;&lt;div&gt;&lt;div style=&quot;text-align: left;&quot;&gt;&lt;font size=&quot;1&quot;&gt;&lt;b style=&quot;font-size: 12px;&quot;&gt;3.&amp;nbsp;&lt;/b&gt;&lt;/font&gt;&lt;b style=&quot;background-color: initial; font-size: 12px;&quot;&gt;Library Prep&lt;/b&gt;&lt;/div&gt;&lt;div style=&quot;text-align: left;&quot;&gt;Rapid Sequencing kit (SQK-RAD114)&lt;/div&gt;&lt;/div&gt;&lt;div style=&quot;text-align: left;&quot;&gt;&lt;br&gt;&lt;/div&gt;&lt;div style=&quot;text-align: left;&quot;&gt;&lt;div&gt;&lt;b style=&quot;&quot;&gt;&lt;font style=&quot;font-size: 12px;&quot;&gt;4. Long-read Sequencing&lt;/font&gt;&lt;/b&gt;&lt;/div&gt;&lt;div&gt;Oxford Nanopore PromethION 2 solo&lt;/div&gt;&lt;/div&gt;&lt;div&gt;&lt;span style=&quot;font-size: 12px;&quot;&gt;&lt;br&gt;&lt;/span&gt;&lt;/div&gt;&lt;div&gt;&lt;div style=&quot;text-align: left;&quot;&gt;&lt;font style=&quot;font-size: 12px;&quot;&gt;&lt;b style=&quot;&quot;&gt;5. &lt;/b&gt;&lt;b style=&quot;background-color: initial;&quot;&gt;Basecalling and Alignment&lt;/b&gt;&lt;/font&gt;&lt;/div&gt;&lt;div style=&quot;text-align: left;&quot;&gt;Dorado + minimap2, hg38&lt;/div&gt;&lt;/div&gt;&lt;/div&gt;&lt;/div&gt;" style="rounded=0;whiteSpace=wrap;html=1;fontSize=11;align=center;" parent="1" vertex="1">
          <mxGeometry x="8670" y="3158.05" width="270" height="297.04" as="geometry" />
        </mxCell>
        <mxCell id="p5nluhM-51DTkeER_7es-2" value="" style="endArrow=none;html=1;rounded=0;fontSize=12;" parent="1" edge="1">
          <mxGeometry width="50" height="50" relative="1" as="geometry">
            <mxPoint x="8670.880000000001" y="3199.23" as="sourcePoint" />
            <mxPoint x="8940" y="3199.23" as="targetPoint" />
          </mxGeometry>
        </mxCell>
        <mxCell id="p5nluhM-51DTkeER_7es-3" style="edgeStyle=orthogonalEdgeStyle;rounded=0;orthogonalLoop=1;jettySize=auto;html=1;exitX=0.5;exitY=1;exitDx=0;exitDy=0;" parent="1" source="p5nluhM-51DTkeER_7es-1" target="p5nluhM-51DTkeER_7es-1" edge="1">
          <mxGeometry relative="1" as="geometry" />
        </mxCell>
        <mxCell id="p5nluhM-51DTkeER_7es-4" value="&lt;div style=&quot;text-align: justify;&quot;&gt;&lt;div&gt;&lt;div style=&quot;text-align: center;&quot;&gt;&lt;b&gt;&lt;font style=&quot;font-size: 12px;&quot;&gt;&amp;nbsp;Genomic Workflow&lt;/font&gt;&lt;/b&gt;&lt;/div&gt;&lt;/div&gt;&lt;div style=&quot;text-align: center;&quot;&gt;&lt;b&gt;&lt;font style=&quot;font-size: 12px;&quot;&gt;&lt;br&gt;&lt;/font&gt;&lt;/b&gt;&lt;/div&gt;&lt;div style=&quot;text-align: center;&quot;&gt;&lt;b&gt;&lt;font style=&quot;font-size: 12px;&quot;&gt;&lt;br&gt;&lt;/font&gt;&lt;/b&gt;&lt;/div&gt;&lt;/div&gt;&lt;div style=&quot;text-align: left;&quot;&gt;&lt;b style=&quot;font-size: 12px; background-color: initial;&quot;&gt;6a. Extract SV, SNV, CNV, STR&lt;/b&gt;&lt;br&gt;&lt;/div&gt;&lt;div&gt;&lt;div style=&quot;&quot;&gt;&lt;div&gt;&lt;div style=&quot;text-align: left;&quot;&gt;Epi2me wf-human variation&lt;/div&gt;&lt;/div&gt;&lt;div style=&quot;text-align: left;&quot;&gt;&lt;span style=&quot;font-size: 12px;&quot;&gt;&lt;br&gt;&lt;/span&gt;&lt;/div&gt;&lt;div style=&quot;text-align: left;&quot;&gt;&lt;div&gt;&lt;font size=&quot;1&quot;&gt;&lt;b style=&quot;font-size: 12px;&quot;&gt;7a. Extract PGx, HLA, ACS10&lt;/b&gt;&lt;/font&gt;&lt;/div&gt;&lt;div&gt;PharmCAT, SpecHLA, Cyrius&lt;/div&gt;&lt;div&gt;&lt;br&gt;&lt;/div&gt;&lt;div&gt;&lt;b style=&quot;background-color: initial; font-size: 12px;&quot;&gt;8a. Generate Dx and Px Genomics&lt;/b&gt;&lt;br&gt;&lt;/div&gt;&lt;div&gt;SV, SNV, CNV &amp;gt; WHO22&amp;nbsp; guidelines&lt;/div&gt;&lt;div&gt;&lt;span style=&quot;font-size: 12px; background-color: initial;&quot;&gt;&lt;br&gt;&lt;/span&gt;&lt;/div&gt;&lt;div&gt;&lt;span style=&quot;font-size: 12px; background-color: initial;&quot;&gt;Output: clinical&lt;/span&gt;&lt;b style=&quot;background-color: initial; font-size: 12px;&quot;&gt;&amp;nbsp;genomic&amp;nbsp;&lt;/b&gt;&lt;/div&gt;&lt;div&gt;&lt;font style=&quot;font-size: 12px;&quot;&gt;&lt;b&gt;diagnosis, prognosis,&lt;/b&gt;&lt;/font&gt;&lt;/div&gt;&lt;div&gt;&lt;font style=&quot;font-size: 12px;&quot;&gt;&lt;b&gt;and pharmacogenomics.&lt;/b&gt;&lt;/font&gt;&lt;/div&gt;&lt;/div&gt;&lt;/div&gt;&lt;/div&gt;" style="rounded=0;whiteSpace=wrap;html=1;fontSize=11;align=center;" parent="1" vertex="1">
          <mxGeometry x="8530" y="3498.05" width="270" height="246.24" as="geometry" />
        </mxCell>
        <mxCell id="p5nluhM-51DTkeER_7es-5" value="" style="endArrow=none;html=1;rounded=0;fontSize=12;" parent="1" edge="1">
          <mxGeometry width="50" height="50" relative="1" as="geometry">
            <mxPoint x="8530.880000000001" y="3538.0500000000006" as="sourcePoint" />
            <mxPoint x="8800" y="3538.0500000000006" as="targetPoint" />
          </mxGeometry>
        </mxCell>
        <mxCell id="p5nluhM-51DTkeER_7es-6" style="edgeStyle=orthogonalEdgeStyle;rounded=0;orthogonalLoop=1;jettySize=auto;html=1;exitX=0.5;exitY=1;exitDx=0;exitDy=0;" parent="1" source="p5nluhM-51DTkeER_7es-4" target="p5nluhM-51DTkeER_7es-4" edge="1">
          <mxGeometry relative="1" as="geometry" />
        </mxCell>
        <mxCell id="AKhyWCw0c3Bj2uSoW79v-1" value="" style="edgeStyle=orthogonalEdgeStyle;rounded=0;orthogonalLoop=1;jettySize=auto;html=1;" parent="1" source="p5nluhM-51DTkeER_7es-1" target="p5nluhM-51DTkeER_7es-7" edge="1">
          <mxGeometry relative="1" as="geometry">
            <Array as="points">
              <mxPoint x="8805" y="3478.05" />
              <mxPoint x="8945" y="3478.05" />
            </Array>
          </mxGeometry>
        </mxCell>
        <mxCell id="p5nluhM-51DTkeER_7es-7" value="&lt;div style=&quot;text-align: justify;&quot;&gt;&lt;div&gt;&lt;div style=&quot;text-align: center;&quot;&gt;&lt;b&gt;&lt;font style=&quot;font-size: 12px;&quot;&gt;&amp;nbsp;Epigenomic Workflow&lt;/font&gt;&lt;/b&gt;&lt;/div&gt;&lt;/div&gt;&lt;/div&gt;&lt;div style=&quot;text-align: left;&quot;&gt;&lt;br&gt;&lt;/div&gt;&lt;div style=&quot;text-align: left;&quot;&gt;&lt;br&gt;&lt;/div&gt;&lt;div&gt;&lt;div style=&quot;&quot;&gt;&lt;div&gt;&lt;div style=&quot;text-align: left;&quot;&gt;&lt;font style=&quot;font-size: 12px;&quot;&gt;&lt;b style=&quot;&quot;&gt;6b. Extract 5mC and 5hmC&lt;/b&gt;&lt;/font&gt;&lt;/div&gt;&lt;div style=&quot;text-align: left;&quot;&gt;Modkit&lt;/div&gt;&lt;/div&gt;&lt;div style=&quot;text-align: left;&quot;&gt;&lt;span style=&quot;font-size: 12px;&quot;&gt;&lt;br&gt;&lt;/span&gt;&lt;/div&gt;&lt;div style=&quot;text-align: left;&quot;&gt;&lt;div&gt;&lt;font size=&quot;1&quot;&gt;&lt;b style=&quot;font-size: 12px;&quot;&gt;7b. Harmonize data to array&lt;/b&gt;&lt;/font&gt;&lt;/div&gt;&lt;div&gt;28M CpGs &amp;gt; 333,058 CpGs&lt;/div&gt;&lt;div&gt;&lt;br&gt;&lt;/div&gt;&lt;div&gt;&lt;div&gt;&lt;font size=&quot;1&quot;&gt;&lt;b style=&quot;font-size: 12px;&quot;&gt;8b. Apply models to new data&lt;/b&gt;&lt;/font&gt;&lt;/div&gt;&lt;div&gt;ALMA &amp;gt; AL Epigenomic Subtype&lt;/div&gt;&lt;/div&gt;&lt;div&gt;ALMA &amp;gt; AML Epigenomic Risk&lt;/div&gt;&lt;div&gt;&lt;span style=&quot;font-size: 12px; background-color: initial;&quot;&gt;&lt;br&gt;&lt;/span&gt;&lt;/div&gt;&lt;div&gt;&lt;span style=&quot;font-size: 12px; background-color: initial;&quot;&gt;Output: clinical&lt;/span&gt;&lt;b style=&quot;background-color: initial; font-size: 12px;&quot;&gt;&amp;nbsp;epigenomic&amp;nbsp;&lt;/b&gt;&lt;/div&gt;&lt;div&gt;&lt;font style=&quot;font-size: 12px;&quot;&gt;&lt;b&gt;diagnosis and prognosis&amp;nbsp;&lt;/b&gt;&lt;/font&gt;&lt;/div&gt;&lt;div&gt;&lt;span style=&quot;font-size: 12px;&quot;&gt;for acute leukemia patients.&lt;/span&gt;&lt;/div&gt;&lt;/div&gt;&lt;/div&gt;&lt;/div&gt;" style="rounded=0;whiteSpace=wrap;html=1;fontSize=11;align=center;" parent="1" vertex="1">
          <mxGeometry x="8810" y="3498.05" width="270" height="246.24" as="geometry" />
        </mxCell>
        <mxCell id="p5nluhM-51DTkeER_7es-8" value="" style="endArrow=none;html=1;rounded=0;fontSize=12;" parent="1" edge="1">
          <mxGeometry width="50" height="50" relative="1" as="geometry">
            <mxPoint x="8810.880000000001" y="3539.23" as="sourcePoint" />
            <mxPoint x="9080" y="3539.23" as="targetPoint" />
          </mxGeometry>
        </mxCell>
        <mxCell id="p5nluhM-51DTkeER_7es-9" style="edgeStyle=orthogonalEdgeStyle;rounded=0;orthogonalLoop=1;jettySize=auto;html=1;exitX=0.5;exitY=1;exitDx=0;exitDy=0;" parent="1" source="p5nluhM-51DTkeER_7es-7" target="p5nluhM-51DTkeER_7es-7" edge="1">
          <mxGeometry relative="1" as="geometry" />
        </mxCell>
        <mxCell id="p5nluhM-51DTkeER_7es-14" value="&lt;span style=&quot;font-size: 36px;&quot;&gt;Detailed Study Strategy&lt;br&gt;7-2-24&lt;br&gt;&lt;/span&gt;" style="text;html=1;strokeColor=none;fillColor=none;align=center;verticalAlign=middle;whiteSpace=wrap;rounded=0;" parent="1" vertex="1">
          <mxGeometry x="8590" y="2998.05" width="420" height="90" as="geometry" />
        </mxCell>
        <mxCell id="kwAKL1qxhj1IjLQ5lcQS-1" value="&lt;span style=&quot;font-size: 36px;&quot;&gt;Manuscript 8-18-24&lt;/span&gt;" style="text;html=1;strokeColor=none;fillColor=none;align=center;verticalAlign=middle;whiteSpace=wrap;rounded=0;" parent="1" vertex="1">
          <mxGeometry x="9620" y="2639.9999999999995" width="330" height="30" as="geometry" />
        </mxCell>
        <mxCell id="kwAKL1qxhj1IjLQ5lcQS-2" value="&lt;span style=&quot;font-size: 36px;&quot;&gt;Study Strategy&lt;/span&gt;" style="text;html=1;strokeColor=none;fillColor=none;align=center;verticalAlign=middle;whiteSpace=wrap;rounded=0;" parent="1" vertex="1">
          <mxGeometry x="9620" y="2694.9999999999995" width="330" height="30" as="geometry" />
        </mxCell>
        <mxCell id="kwAKL1qxhj1IjLQ5lcQS-3" value="" style="edgeStyle=orthogonalEdgeStyle;rounded=0;orthogonalLoop=1;jettySize=auto;html=1;" parent="1" source="kwAKL1qxhj1IjLQ5lcQS-4" target="kwAKL1qxhj1IjLQ5lcQS-9" edge="1">
          <mxGeometry relative="1" as="geometry" />
        </mxCell>
        <mxCell id="kwAKL1qxhj1IjLQ5lcQS-4" value="&lt;div style=&quot;&quot;&gt;&lt;div style=&quot;&quot;&gt;&lt;div style=&quot;font-size: 11px;&quot;&gt;&lt;span style=&quot;text-align: justify; background-color: initial; font-size: 12px;&quot;&gt;&lt;b&gt;Acute Leukemia Methylome Atlas&lt;/b&gt;&lt;/span&gt;&lt;/div&gt;&lt;div style=&quot;font-size: 11px;&quot;&gt;&lt;span style=&quot;text-align: justify; background-color: initial; font-size: 12px;&quot;&gt;n=3308&lt;/span&gt;&lt;/div&gt;&lt;div style=&quot;font-size: 11px;&quot;&gt;&lt;span style=&quot;text-align: justify; background-color: initial; font-size: 12px;&quot;&gt;AML, ALL, MDS, MPAL studies/trials&lt;/span&gt;&lt;br&gt;&lt;/div&gt;&lt;div style=&quot;text-align: justify;&quot;&gt;&lt;div style=&quot;font-size: 11px;&quot;&gt;&lt;span style=&quot;font-size: 12px;&quot;&gt;Bone Marrow and Peripheral Blood&amp;nbsp;&lt;/span&gt;&lt;/div&gt;&lt;/div&gt;&lt;/div&gt;&lt;/div&gt;" style="rounded=0;whiteSpace=wrap;html=1;align=center;" parent="1" vertex="1">
          <mxGeometry x="9350" y="2907.96" width="261" height="90.09" as="geometry" />
        </mxCell>
        <mxCell id="kwAKL1qxhj1IjLQ5lcQS-5" value="" style="edgeStyle=orthogonalEdgeStyle;rounded=0;orthogonalLoop=1;jettySize=auto;html=1;" parent="1" source="kwAKL1qxhj1IjLQ5lcQS-4" target="kwAKL1qxhj1IjLQ5lcQS-7" edge="1">
          <mxGeometry relative="1" as="geometry" />
        </mxCell>
        <mxCell id="kwAKL1qxhj1IjLQ5lcQS-6" value="" style="edgeStyle=orthogonalEdgeStyle;rounded=0;orthogonalLoop=1;jettySize=auto;html=1;" parent="1" source="kwAKL1qxhj1IjLQ5lcQS-7" target="kwAKL1qxhj1IjLQ5lcQS-11" edge="1">
          <mxGeometry relative="1" as="geometry" />
        </mxCell>
        <mxCell id="kwAKL1qxhj1IjLQ5lcQS-7" value="&lt;div style=&quot;&quot;&gt;&lt;div style=&quot;&quot;&gt;&lt;div style=&quot;text-align: justify;&quot;&gt;&lt;b&gt;AML Epigenomic Risk&lt;/b&gt;&lt;/div&gt;&lt;div style=&quot;&quot;&gt;n=1797&lt;b&gt;&lt;br&gt;&lt;/b&gt;&lt;/div&gt;&lt;div style=&quot;font-size: 11px; text-align: left;&quot;&gt;&lt;span style=&quot;font-size: 12px; text-align: justify; background-color: initial;&quot;&gt;AML samples w/ vital status info&lt;/span&gt;&lt;/div&gt;&lt;/div&gt;&lt;/div&gt;" style="rounded=0;whiteSpace=wrap;html=1;align=center;" parent="1" vertex="1">
          <mxGeometry x="9665" y="2960" width="260" height="70" as="geometry" />
        </mxCell>
        <mxCell id="kwAKL1qxhj1IjLQ5lcQS-8" value="" style="edgeStyle=orthogonalEdgeStyle;rounded=0;orthogonalLoop=1;jettySize=auto;html=1;" parent="1" source="kwAKL1qxhj1IjLQ5lcQS-9" target="kwAKL1qxhj1IjLQ5lcQS-11" edge="1">
          <mxGeometry relative="1" as="geometry" />
        </mxCell>
        <mxCell id="kwAKL1qxhj1IjLQ5lcQS-9" value="&lt;div style=&quot;&quot;&gt;&lt;div style=&quot;&quot;&gt;&lt;div style=&quot;font-size: 11px; text-align: justify;&quot;&gt;&lt;b&gt;&lt;font style=&quot;font-size: 12px;&quot;&gt;AL Epigenomic Phenotype&lt;/font&gt;&lt;/b&gt;&lt;/div&gt;&lt;div style=&quot;&quot;&gt;&lt;div style=&quot;&quot;&gt;&lt;span style=&quot;background-color: initial;&quot;&gt;n=2445&lt;/span&gt;&lt;/div&gt;&lt;div style=&quot;&quot;&gt;Samples w/ WHO 2022 Dx info&lt;/div&gt;&lt;/div&gt;&lt;/div&gt;&lt;/div&gt;" style="rounded=0;whiteSpace=wrap;html=1;align=center;" parent="1" vertex="1">
          <mxGeometry x="9665" y="2885" width="260" height="70" as="geometry" />
        </mxCell>
        <mxCell id="kwAKL1qxhj1IjLQ5lcQS-10" value="" style="edgeStyle=orthogonalEdgeStyle;rounded=0;orthogonalLoop=1;jettySize=auto;html=1;" parent="1" source="kwAKL1qxhj1IjLQ5lcQS-11" target="kwAKL1qxhj1IjLQ5lcQS-12" edge="1">
          <mxGeometry relative="1" as="geometry" />
        </mxCell>
        <mxCell id="kwAKL1qxhj1IjLQ5lcQS-11" value="&lt;div style=&quot;&quot;&gt;&lt;div style=&quot;&quot;&gt;&lt;div style=&quot;font-size: 11px;&quot;&gt;&lt;span style=&quot;font-size: 12px; text-align: justify; background-color: initial;&quot;&gt;&lt;b&gt;Multi-center AML02,08 Trials&lt;/b&gt;&lt;/span&gt;&lt;br&gt;&lt;/div&gt;&lt;div style=&quot;font-size: 11px;&quot;&gt;&lt;span style=&quot;font-size: 12px; text-align: justify; background-color: initial;&quot;&gt;n=201&lt;/span&gt;&lt;/div&gt;&lt;div style=&quot;text-align: justify;&quot;&gt;&lt;div style=&quot;font-size: 11px;&quot;&gt;&lt;font style=&quot;font-size: 12px;&quot;&gt;Dx BM,&amp;nbsp;&lt;/font&gt;&lt;span style=&quot;font-size: 12px; background-color: initial;&quot;&gt;Illumina methyl array&lt;/span&gt;&lt;/div&gt;&lt;/div&gt;&lt;/div&gt;&lt;/div&gt;" style="rounded=0;whiteSpace=wrap;html=1;align=center;" parent="1" vertex="1">
          <mxGeometry x="9963.88" y="2922.96" width="260" height="70" as="geometry" />
        </mxCell>
        <mxCell id="kwAKL1qxhj1IjLQ5lcQS-12" value="&lt;div style=&quot;&quot;&gt;&lt;div style=&quot;&quot;&gt;&lt;div style=&quot;&quot;&gt;&lt;b&gt;Univ. of Florida HemBank&lt;/b&gt;&lt;/div&gt;&lt;div style=&quot;&quot;&gt;n=20&lt;/div&gt;&lt;div style=&quot;text-align: justify;&quot;&gt;&lt;div style=&quot;font-size: 11px;&quot;&gt;&lt;font style=&quot;font-size: 12px;&quot;&gt;PB/BM, long-read nanopore seq&lt;/font&gt;&lt;/div&gt;&lt;/div&gt;&lt;/div&gt;&lt;/div&gt;" style="rounded=0;whiteSpace=wrap;html=1;align=center;" parent="1" vertex="1">
          <mxGeometry x="10250" y="2922.96" width="260" height="70" as="geometry" />
        </mxCell>
        <mxCell id="kwAKL1qxhj1IjLQ5lcQS-13" value="" style="edgeStyle=orthogonalEdgeStyle;rounded=0;orthogonalLoop=1;jettySize=auto;html=1;" parent="1" source="kwAKL1qxhj1IjLQ5lcQS-14" target="kwAKL1qxhj1IjLQ5lcQS-27" edge="1">
          <mxGeometry relative="1" as="geometry" />
        </mxCell>
        <mxCell id="kwAKL1qxhj1IjLQ5lcQS-14" value="&lt;div style=&quot;text-align: justify;&quot;&gt;&lt;div&gt;&lt;div style=&quot;text-align: center;&quot;&gt;&lt;b&gt;&lt;font style=&quot;font-size: 12px;&quot;&gt;&amp;nbsp;Data Pre-Processing&lt;/font&gt;&lt;/b&gt;&lt;/div&gt;&lt;/div&gt;&lt;/div&gt;&lt;div style=&quot;text-align: left;&quot;&gt;&lt;br&gt;&lt;/div&gt;&lt;div style=&quot;text-align: left;&quot;&gt;&lt;br&gt;&lt;/div&gt;&lt;div style=&quot;text-align: left;&quot;&gt;&lt;font style=&quot;font-size: 12px;&quot;&gt;Input: 3845 samples with&amp;nbsp;&lt;span style=&quot;background-color: initial;&quot;&gt;452,453 CpGs&lt;/span&gt;&lt;/font&gt;&lt;/div&gt;&lt;div style=&quot;text-align: left;&quot;&gt;&lt;span style=&quot;background-color: initial;&quot;&gt;&lt;br&gt;&lt;/span&gt;&lt;/div&gt;&lt;div style=&quot;text-align: left;&quot;&gt;&lt;font style=&quot;font-size: 12px;&quot;&gt;&lt;b style=&quot;background-color: initial;&quot;&gt;1.&amp;nbsp;&lt;/b&gt;&lt;b style=&quot;background-color: initial;&quot;&gt;&lt;font style=&quot;&quot;&gt;Pre-process raw data&lt;/font&gt;&lt;/b&gt;&lt;/font&gt;&lt;br&gt;&lt;/div&gt;&lt;div&gt;&lt;div style=&quot;text-align: left;&quot;&gt;&lt;span style=&quot;background-color: initial;&quot;&gt;&lt;font style=&quot;font-size: 11px;&quot;&gt;SeSAMe (PMID: 30085201)&lt;/font&gt;&lt;/span&gt;&lt;/div&gt;&lt;div style=&quot;text-align: left;&quot;&gt;&lt;span style=&quot;font-size: 12px;&quot;&gt;&lt;br&gt;&lt;/span&gt;&lt;/div&gt;&lt;div style=&quot;&quot;&gt;&lt;div style=&quot;text-align: left;&quot;&gt;&lt;font style=&quot;font-size: 12px;&quot;&gt;&lt;b style=&quot;&quot;&gt;2.&amp;nbsp;&lt;/b&gt;&lt;b style=&quot;background-color: initial;&quot;&gt;Exclude suboptimal CpG probes&lt;/b&gt;&lt;/font&gt;&lt;/div&gt;&lt;div style=&quot;text-align: left;&quot;&gt;&lt;font style=&quot;font-size: 11px;&quot;&gt;47,382 CpGs removed&amp;nbsp;&lt;span style=&quot;background-color: initial;&quot;&gt;(PMID: 27924034)&lt;/span&gt;&lt;/font&gt;&lt;/div&gt;&lt;div&gt;&lt;span style=&quot;background-color: initial; font-size: 12px;&quot;&gt;&lt;br&gt;&lt;/span&gt;&lt;/div&gt;&lt;div&gt;&lt;div style=&quot;text-align: left;&quot;&gt;&lt;font size=&quot;1&quot;&gt;&lt;b style=&quot;font-size: 12px;&quot;&gt;3.&amp;nbsp;&lt;/b&gt;&lt;/font&gt;&lt;b style=&quot;background-color: initial; font-size: 12px;&quot;&gt;Exclude sex-linked CpG probes&lt;/b&gt;&lt;/div&gt;&lt;div style=&quot;text-align: left;&quot;&gt;&lt;font style=&quot;font-size: 11px;&quot;&gt;9,570&amp;nbsp; CpGs&amp;nbsp;&lt;/font&gt;removed&lt;/div&gt;&lt;/div&gt;&lt;div style=&quot;text-align: left;&quot;&gt;&lt;br&gt;&lt;/div&gt;&lt;div style=&quot;text-align: left;&quot;&gt;&lt;div&gt;&lt;b style=&quot;&quot;&gt;&lt;font style=&quot;font-size: 12px;&quot;&gt;4. Exclude non-hematopoietic samples&lt;/font&gt;&lt;/b&gt;&lt;/div&gt;&lt;div&gt;&lt;font style=&quot;font-size: 11px;&quot;&gt;60 samples&amp;nbsp;&lt;/font&gt;removed&lt;/div&gt;&lt;/div&gt;&lt;div&gt;&lt;span style=&quot;font-size: 12px;&quot;&gt;&lt;br&gt;&lt;/span&gt;&lt;/div&gt;&lt;div&gt;&lt;div style=&quot;text-align: left;&quot;&gt;&lt;font style=&quot;font-size: 12px;&quot;&gt;&lt;b style=&quot;&quot;&gt;5.&amp;nbsp;&lt;/b&gt;&lt;b style=&quot;background-color: initial;&quot;&gt;Exclude failed Illumina QC samples&lt;/b&gt;&lt;/font&gt;&lt;/div&gt;&lt;div style=&quot;text-align: left;&quot;&gt;&lt;font style=&quot;font-size: 11px;&quot;&gt;466 samples&amp;nbsp;&lt;/font&gt;removed&lt;/div&gt;&lt;div style=&quot;text-align: left;&quot;&gt;&lt;font style=&quot;font-size: 11px;&quot;&gt;(pOOBAH &amp;gt; 0.05 in &amp;gt; 20% probes)&lt;/font&gt;&lt;span style=&quot;font-size: 12px;&quot;&gt;&amp;nbsp;&lt;/span&gt;&lt;/div&gt;&lt;/div&gt;&lt;div style=&quot;text-align: left;&quot;&gt;&lt;span style=&quot;font-size: 12px;&quot;&gt;&lt;br&gt;&lt;/span&gt;&lt;/div&gt;&lt;div&gt;&lt;div style=&quot;text-align: left;&quot;&gt;&lt;font style=&quot;font-size: 12px;&quot;&gt;&lt;b style=&quot;&quot;&gt;6.&amp;nbsp;&lt;/b&gt;&lt;b style=&quot;background-color: initial;&quot;&gt;Exclude CpGs with missing values&lt;/b&gt;&lt;/font&gt;&lt;/div&gt;&lt;div style=&quot;text-align: left;&quot;&gt;&lt;font style=&quot;font-size: 11px;&quot;&gt;62,443 CpGs&amp;nbsp;&lt;/font&gt;removed&lt;/div&gt;&lt;div style=&quot;text-align: left;&quot;&gt;&lt;font style=&quot;font-size: 11px;&quot;&gt;(which contained &amp;gt;5% of missing values)&lt;/font&gt;&lt;/div&gt;&lt;/div&gt;&lt;div style=&quot;text-align: left;&quot;&gt;&lt;span style=&quot;font-size: 12px;&quot;&gt;&lt;br&gt;&lt;/span&gt;&lt;/div&gt;&lt;div style=&quot;text-align: left;&quot;&gt;&lt;div&gt;&lt;font size=&quot;1&quot;&gt;&lt;b style=&quot;font-size: 12px;&quot;&gt;7. Impute remaining missing values&lt;/b&gt;&lt;/font&gt;&lt;/div&gt;&lt;div&gt;&lt;font style=&quot;font-size: 11px;&quot;&gt;By mean of batch (PMID: 32600298)&lt;/font&gt;&lt;/div&gt;&lt;div&gt;&lt;br&gt;&lt;/div&gt;&lt;div&gt;&lt;div&gt;&lt;font size=&quot;1&quot;&gt;&lt;b style=&quot;font-size: 12px;&quot;&gt;8. Exclude outliers by PCA&lt;/b&gt;&lt;/font&gt;&lt;/div&gt;&lt;div&gt;11 samples&amp;nbsp;removed&lt;span style=&quot;background-color: initial;&quot;&gt;&amp;nbsp;&lt;/span&gt;&lt;span style=&quot;background-color: initial;&quot;&gt;(whose PC1 &amp;gt;= 5 std)&lt;/span&gt;&lt;/div&gt;&lt;/div&gt;&lt;div&gt;&lt;br&gt;&lt;/div&gt;&lt;div&gt;&lt;div&gt;&lt;font size=&quot;1&quot;&gt;&lt;b style=&quot;font-size: 12px;&quot;&gt;9. Run batch correction&lt;/b&gt;&lt;/font&gt;&lt;/div&gt;&lt;/div&gt;&lt;div&gt;&lt;font style=&quot;font-size: 11px;&quot;&gt;pyComBat (PMID: 16632515)&lt;/font&gt;&lt;/div&gt;&lt;div&gt;&lt;br&gt;&lt;/div&gt;&lt;div&gt;&lt;div&gt;&lt;font size=&quot;1&quot;&gt;&lt;b style=&quot;font-size: 12px;&quot;&gt;10. Index, merge, clean clinical data&lt;/b&gt;&lt;/font&gt;&lt;/div&gt;&lt;div&gt;Harmonize clinical data into a single dataset&lt;/div&gt;&lt;/div&gt;&lt;div&gt;&lt;br&gt;&lt;/div&gt;&lt;div&gt;&lt;font style=&quot;font-size: 12px;&quot;&gt;Output: 3308 samples with 333,058 CpGs&lt;/font&gt;&lt;/div&gt;&lt;div&gt;&lt;br&gt;&lt;/div&gt;&lt;/div&gt;&lt;/div&gt;&lt;/div&gt;" style="rounded=0;whiteSpace=wrap;html=1;fontSize=11;align=center;" parent="1" vertex="1">
          <mxGeometry x="9340" y="3301.13" width="270" height="571" as="geometry" />
        </mxCell>
        <mxCell id="kwAKL1qxhj1IjLQ5lcQS-15" value="" style="endArrow=none;html=1;rounded=0;fontSize=12;" parent="1" edge="1">
          <mxGeometry width="50" height="50" relative="1" as="geometry">
            <mxPoint x="9340.880000000001" y="3342.13" as="sourcePoint" />
            <mxPoint x="9610" y="3342.13" as="targetPoint" />
          </mxGeometry>
        </mxCell>
        <mxCell id="kwAKL1qxhj1IjLQ5lcQS-16" style="edgeStyle=orthogonalEdgeStyle;rounded=0;orthogonalLoop=1;jettySize=auto;html=1;exitX=0.5;exitY=1;exitDx=0;exitDy=0;" parent="1" source="kwAKL1qxhj1IjLQ5lcQS-14" target="kwAKL1qxhj1IjLQ5lcQS-14" edge="1">
          <mxGeometry relative="1" as="geometry" />
        </mxCell>
        <mxCell id="kwAKL1qxhj1IjLQ5lcQS-17" value="" style="edgeStyle=orthogonalEdgeStyle;rounded=0;orthogonalLoop=1;jettySize=auto;html=1;" parent="1" source="kwAKL1qxhj1IjLQ5lcQS-27" target="kwAKL1qxhj1IjLQ5lcQS-19" edge="1">
          <mxGeometry relative="1" as="geometry" />
        </mxCell>
        <mxCell id="kwAKL1qxhj1IjLQ5lcQS-18" value="" style="edgeStyle=orthogonalEdgeStyle;rounded=0;orthogonalLoop=1;jettySize=auto;html=1;" parent="1" source="kwAKL1qxhj1IjLQ5lcQS-19" target="kwAKL1qxhj1IjLQ5lcQS-32" edge="1">
          <mxGeometry relative="1" as="geometry" />
        </mxCell>
        <mxCell id="kwAKL1qxhj1IjLQ5lcQS-19" value="&lt;div style=&quot;text-align: justify;&quot;&gt;&lt;div style=&quot;text-align: center;&quot;&gt;&lt;b style=&quot;font-size: 12px;&quot;&gt;Prognostic Model Development&amp;nbsp;&lt;/b&gt;&lt;br&gt;&lt;/div&gt;&lt;/div&gt;&lt;div style=&quot;text-align: left;&quot;&gt;&lt;br&gt;&lt;/div&gt;&lt;div style=&quot;text-align: left;&quot;&gt;&lt;br&gt;&lt;/div&gt;&lt;div style=&quot;text-align: left;&quot;&gt;&lt;font style=&quot;font-size: 12px;&quot;&gt;Input: 3308 samples&lt;/font&gt;&lt;/div&gt;&lt;div style=&quot;text-align: left;&quot;&gt;&lt;font style=&quot;font-size: 12px;&quot;&gt;&lt;span style=&quot;white-space: pre;&quot;&gt;&#x9;&lt;/span&gt;&amp;nbsp; &amp;nbsp;with 5 PaCMAP coordinates&amp;nbsp;&lt;/font&gt;&lt;/div&gt;&lt;div style=&quot;text-align: left;&quot;&gt;&lt;span style=&quot;background-color: initial;&quot;&gt;&lt;br&gt;&lt;/span&gt;&lt;/div&gt;&lt;div style=&quot;text-align: left;&quot;&gt;&lt;font style=&quot;font-size: 12px;&quot;&gt;&lt;b style=&quot;background-color: initial;&quot;&gt;1. Select samples with vital status&lt;/b&gt;&lt;/font&gt;&lt;br&gt;&lt;/div&gt;&lt;div&gt;&lt;div style=&quot;text-align: left;&quot;&gt;&lt;span style=&quot;background-color: initial;&quot;&gt;1797 AML samples had OS info&lt;/span&gt;&lt;br&gt;&lt;/div&gt;&lt;div style=&quot;text-align: left;&quot;&gt;&lt;span style=&quot;font-size: 12px;&quot;&gt;&lt;br&gt;&lt;/span&gt;&lt;/div&gt;&lt;div style=&quot;&quot;&gt;&lt;div style=&quot;text-align: left;&quot;&gt;&lt;font style=&quot;font-size: 12px;&quot;&gt;&lt;b style=&quot;&quot;&gt;2. Devise supervised model&lt;/b&gt;&lt;/font&gt;&lt;/div&gt;&lt;div&gt;&lt;div style=&quot;text-align: left;&quot;&gt;5 PaCMAP coordinates as input&lt;/div&gt;&lt;/div&gt;&lt;div style=&quot;text-align: left;&quot;&gt;Overall survival as target output&lt;/div&gt;&lt;div style=&quot;text-align: left;&quot;&gt;Grid search, 10-fold CV, regularization&lt;/div&gt;&lt;div style=&quot;text-align: left;&quot;&gt;LightGBM Classifier (Microsoft, 2017)&lt;/div&gt;&lt;div style=&quot;text-align: left;&quot;&gt;&lt;div&gt;&lt;br&gt;&lt;/div&gt;&lt;div&gt;&lt;font style=&quot;background-color: initial; font-size: 12px;&quot;&gt;Output:&amp;nbsp;&lt;/font&gt;&lt;b style=&quot;background-color: initial; font-size: 12px; text-align: center;&quot;&gt;AML Epigenomic Risk&lt;/b&gt;&lt;br&gt;&lt;/div&gt;&lt;div&gt;A prognostic risk score for AML&lt;/div&gt;&lt;/div&gt;&lt;/div&gt;&lt;/div&gt;" style="rounded=0;whiteSpace=wrap;html=1;fontSize=11;align=center;" parent="1" vertex="1">
          <mxGeometry x="10000" y="3600" width="270" height="261.18" as="geometry" />
        </mxCell>
        <mxCell id="kwAKL1qxhj1IjLQ5lcQS-20" value="" style="endArrow=none;html=1;rounded=0;fontSize=12;" parent="1" edge="1">
          <mxGeometry width="50" height="50" relative="1" as="geometry">
            <mxPoint x="10000.880000000001" y="3641.18" as="sourcePoint" />
            <mxPoint x="10270" y="3641.18" as="targetPoint" />
          </mxGeometry>
        </mxCell>
        <mxCell id="kwAKL1qxhj1IjLQ5lcQS-21" value="&lt;span style=&quot;font-size: 36px;&quot;&gt;Detailed Study Strategy&lt;/span&gt;" style="text;html=1;strokeColor=none;fillColor=none;align=center;verticalAlign=middle;whiteSpace=wrap;rounded=0;" parent="1" vertex="1">
          <mxGeometry x="9740" y="3210" width="420" height="30" as="geometry" />
        </mxCell>
        <mxCell id="kwAKL1qxhj1IjLQ5lcQS-22" value="Unveil the epigenomic landscape of acute leukemia" style="text;html=1;strokeColor=none;fillColor=none;align=center;verticalAlign=middle;whiteSpace=wrap;rounded=0;" parent="1" vertex="1">
          <mxGeometry x="9389.63" y="2872.96" width="181.75" height="30" as="geometry" />
        </mxCell>
        <mxCell id="kwAKL1qxhj1IjLQ5lcQS-23" value="Use AL landscape to create models predictive of diagnosis and prognosis" style="text;html=1;strokeColor=none;fillColor=none;align=center;verticalAlign=middle;whiteSpace=wrap;rounded=0;" parent="1" vertex="1">
          <mxGeometry x="9670" y="2840" width="240" height="45" as="geometry" />
        </mxCell>
        <mxCell id="kwAKL1qxhj1IjLQ5lcQS-24" value="Validate models retrospectively in rigorous clinical trials&amp;nbsp;" style="text;html=1;strokeColor=none;fillColor=none;align=center;verticalAlign=middle;whiteSpace=wrap;rounded=0;" parent="1" vertex="1">
          <mxGeometry x="10005.26" y="2886.5" width="177.24" height="30" as="geometry" />
        </mxCell>
        <mxCell id="kwAKL1qxhj1IjLQ5lcQS-25" value="Test models prospectively in fresh and frozen patient samples" style="text;html=1;strokeColor=none;fillColor=none;align=center;verticalAlign=middle;whiteSpace=wrap;rounded=0;" parent="1" vertex="1">
          <mxGeometry x="10280" y="2886.5" width="200" height="30" as="geometry" />
        </mxCell>
        <mxCell id="kwAKL1qxhj1IjLQ5lcQS-26" value="" style="edgeStyle=orthogonalEdgeStyle;rounded=0;orthogonalLoop=1;jettySize=auto;html=1;" parent="1" source="kwAKL1qxhj1IjLQ5lcQS-27" target="kwAKL1qxhj1IjLQ5lcQS-30" edge="1">
          <mxGeometry relative="1" as="geometry" />
        </mxCell>
        <mxCell id="kwAKL1qxhj1IjLQ5lcQS-27" value="&lt;div style=&quot;text-align: justify;&quot;&gt;&lt;div style=&quot;text-align: center;&quot;&gt;&lt;b style=&quot;font-size: 12px;&quot;&gt;Acute Leukemia Methylome Atlas&amp;nbsp;&lt;/b&gt;&lt;br&gt;&lt;/div&gt;&lt;div style=&quot;text-align: center;&quot;&gt;&lt;b style=&quot;font-size: 12px;&quot;&gt;&lt;br&gt;&lt;/b&gt;&lt;/div&gt;&lt;/div&gt;&lt;div style=&quot;text-align: left;&quot;&gt;&lt;br&gt;&lt;/div&gt;&lt;div style=&quot;text-align: left;&quot;&gt;&lt;font style=&quot;font-size: 12px;&quot;&gt;Input: 3308 samples with 333,058 CpGs&lt;/font&gt;&lt;/div&gt;&lt;div&gt;&lt;div style=&quot;&quot;&gt;&lt;div&gt;&lt;span style=&quot;background-color: initial; font-size: 12px;&quot;&gt;&lt;br&gt;&lt;/span&gt;&lt;/div&gt;&lt;div&gt;&lt;div style=&quot;text-align: left;&quot;&gt;&lt;font size=&quot;1&quot;&gt;&lt;b style=&quot;font-size: 12px;&quot;&gt;1. Devise Acute Leukemia Atlas&lt;/b&gt;&lt;/font&gt;&lt;/div&gt;&lt;div style=&quot;text-align: left;&quot;&gt;PaCMAP (JMLR:v22-20-1061)&lt;/div&gt;&lt;div style=&quot;text-align: left;&quot;&gt;&lt;span style=&quot;background-color: initial;&quot;&gt;&lt;font style=&quot;font-size: 11px;&quot;&gt;Large-scale dimension reduction&lt;/font&gt;&lt;/span&gt;&lt;/div&gt;&lt;/div&gt;&lt;div style=&quot;text-align: left;&quot;&gt;Unsupervised model&lt;/div&gt;&lt;div style=&quot;text-align: left;&quot;&gt;&lt;div&gt;&lt;font style=&quot;background-color: initial; font-size: 12px;&quot;&gt;&lt;br&gt;&lt;/font&gt;&lt;/div&gt;&lt;div&gt;&lt;font style=&quot;background-color: initial; font-size: 12px;&quot;&gt;Output:&amp;nbsp;&lt;/font&gt;&lt;b style=&quot;background-color: initial; font-size: 12px; text-align: center;&quot;&gt;5 PaCMAP coordinates&lt;/b&gt;&lt;br&gt;&lt;/div&gt;&lt;/div&gt;&lt;div style=&quot;text-align: left;&quot;&gt;&lt;div&gt;&lt;b style=&quot;background-color: initial; font-size: 12px; text-align: center;&quot;&gt;&lt;br&gt;&lt;/b&gt;&lt;/div&gt;&lt;div&gt;&lt;span style=&quot;font-size: 12px;&quot;&gt;&lt;i&gt;Coordinates here are like longitude&lt;/i&gt;&lt;/span&gt;&lt;/div&gt;&lt;div&gt;&lt;i&gt;&lt;span style=&quot;font-size: 12px;&quot;&gt;and&amp;nbsp;&lt;/span&gt;&lt;span style=&quot;font-size: 12px; background-color: initial;&quot;&gt;latitude coordinates used in maps.&amp;nbsp;&lt;/span&gt;&lt;/i&gt;&lt;/div&gt;&lt;div&gt;&lt;i&gt;&lt;span style=&quot;font-size: 12px; background-color: initial;&quot;&gt;It forms the grid through which&lt;/span&gt;&lt;/i&gt;&lt;i style=&quot;background-color: initial;&quot;&gt;&lt;span style=&quot;background-color: initial; font-size: 12px;&quot;&gt;&amp;nbsp;patient&amp;nbsp;&lt;/span&gt;&lt;/i&gt;&lt;/div&gt;&lt;div&gt;&lt;i style=&quot;background-color: initial;&quot;&gt;&lt;span style=&quot;background-color: initial; font-size: 12px;&quot;&gt;samples can be&amp;nbsp;&lt;/span&gt;&lt;/i&gt;&lt;i style=&quot;background-color: initial;&quot;&gt;&lt;span style=&quot;background-color: initial; font-size: 12px;&quot;&gt;mapped.&lt;/span&gt;&lt;/i&gt;&lt;/div&gt;&lt;/div&gt;&lt;/div&gt;&lt;/div&gt;" style="rounded=0;whiteSpace=wrap;html=1;fontSize=11;align=center;" parent="1" vertex="1">
          <mxGeometry x="9660" y="3451.14" width="270" height="271.15" as="geometry" />
        </mxCell>
        <mxCell id="kwAKL1qxhj1IjLQ5lcQS-28" value="" style="endArrow=none;html=1;rounded=0;fontSize=12;" parent="1" edge="1">
          <mxGeometry width="50" height="50" relative="1" as="geometry">
            <mxPoint x="9660.880000000001" y="3502.31" as="sourcePoint" />
            <mxPoint x="9930" y="3502.31" as="targetPoint" />
          </mxGeometry>
        </mxCell>
        <mxCell id="kwAKL1qxhj1IjLQ5lcQS-29" value="" style="edgeStyle=orthogonalEdgeStyle;rounded=0;orthogonalLoop=1;jettySize=auto;html=1;" parent="1" source="kwAKL1qxhj1IjLQ5lcQS-30" target="kwAKL1qxhj1IjLQ5lcQS-32" edge="1">
          <mxGeometry relative="1" as="geometry" />
        </mxCell>
        <mxCell id="kwAKL1qxhj1IjLQ5lcQS-30" value="&lt;div style=&quot;text-align: justify;&quot;&gt;&lt;div style=&quot;text-align: center;&quot;&gt;&lt;b style=&quot;font-size: 12px;&quot;&gt;Diagnostic Model Development&amp;nbsp;&lt;/b&gt;&lt;br&gt;&lt;/div&gt;&lt;/div&gt;&lt;div style=&quot;text-align: left;&quot;&gt;&lt;br&gt;&lt;/div&gt;&lt;div style=&quot;text-align: left;&quot;&gt;&lt;br&gt;&lt;/div&gt;&lt;div style=&quot;text-align: left;&quot;&gt;&lt;font style=&quot;font-size: 12px;&quot;&gt;Input: 3308 samples&lt;/font&gt;&lt;/div&gt;&lt;div style=&quot;text-align: left;&quot;&gt;&lt;font style=&quot;font-size: 12px;&quot;&gt;&lt;span style=&quot;white-space: pre;&quot;&gt;&#x9;&lt;/span&gt;&amp;nbsp; &amp;nbsp;with 5 PaCMAP coordinates&amp;nbsp;&lt;/font&gt;&lt;/div&gt;&lt;div style=&quot;text-align: left;&quot;&gt;&lt;span style=&quot;background-color: initial;&quot;&gt;&lt;br&gt;&lt;/span&gt;&lt;/div&gt;&lt;div style=&quot;text-align: left;&quot;&gt;&lt;font style=&quot;font-size: 12px;&quot;&gt;&lt;b style=&quot;background-color: initial;&quot;&gt;1. Select samples with Dx data&lt;/b&gt;&lt;/font&gt;&lt;br&gt;&lt;/div&gt;&lt;div&gt;&lt;div style=&quot;text-align: left;&quot;&gt;&lt;span style=&quot;background-color: initial;&quot;&gt;2445 samples had WHO22 Dx info&lt;/span&gt;&lt;br&gt;&lt;/div&gt;&lt;div style=&quot;text-align: left;&quot;&gt;&lt;span style=&quot;font-size: 12px;&quot;&gt;&lt;br&gt;&lt;/span&gt;&lt;/div&gt;&lt;div style=&quot;&quot;&gt;&lt;div style=&quot;text-align: left;&quot;&gt;&lt;font style=&quot;font-size: 12px;&quot;&gt;&lt;b style=&quot;&quot;&gt;2. Devise supervised model&lt;/b&gt;&lt;/font&gt;&lt;/div&gt;&lt;div&gt;&lt;div style=&quot;text-align: left;&quot;&gt;5 PaCMAP coordinates as input&lt;/div&gt;&lt;/div&gt;&lt;div style=&quot;text-align: left;&quot;&gt;WHO2022 Dx as target output&lt;/div&gt;&lt;div style=&quot;text-align: left;&quot;&gt;Grid search, 10-fold CV, regularization&lt;/div&gt;&lt;div style=&quot;text-align: left;&quot;&gt;LightGBM Classifier (Microsoft 2017)&lt;/div&gt;&lt;div style=&quot;text-align: left;&quot;&gt;&lt;div&gt;&lt;br&gt;&lt;/div&gt;&lt;div&gt;&lt;font style=&quot;background-color: initial; font-size: 12px;&quot;&gt;Output:&amp;nbsp;&lt;/font&gt;&lt;b style=&quot;background-color: initial; font-size: 12px; text-align: center;&quot;&gt;AL Epigenomic Subtype&lt;/b&gt;&lt;br&gt;&lt;/div&gt;&lt;div&gt;A WHO 2022 diagnostic classifier for AL&lt;/div&gt;&lt;/div&gt;&lt;/div&gt;&lt;/div&gt;" style="rounded=0;whiteSpace=wrap;html=1;fontSize=11;align=center;" parent="1" vertex="1">
          <mxGeometry x="10000" y="3320" width="270" height="260" as="geometry" />
        </mxCell>
        <mxCell id="kwAKL1qxhj1IjLQ5lcQS-31" value="" style="endArrow=none;html=1;rounded=0;fontSize=12;" parent="1" edge="1">
          <mxGeometry width="50" height="50" relative="1" as="geometry">
            <mxPoint x="10000.880000000001" y="3360.18" as="sourcePoint" />
            <mxPoint x="10270" y="3360.18" as="targetPoint" />
          </mxGeometry>
        </mxCell>
        <mxCell id="kwAKL1qxhj1IjLQ5lcQS-32" value="&lt;div style=&quot;text-align: justify;&quot;&gt;&lt;div&gt;&lt;div style=&quot;text-align: center;&quot;&gt;&lt;b&gt;&lt;font style=&quot;font-size: 12px;&quot;&gt;&amp;nbsp;Specimen-to-result Testing&lt;/font&gt;&lt;/b&gt;&lt;/div&gt;&lt;/div&gt;&lt;/div&gt;&lt;div style=&quot;text-align: left;&quot;&gt;&lt;br&gt;&lt;/div&gt;&lt;div style=&quot;text-align: left;&quot;&gt;&lt;br&gt;&lt;/div&gt;&lt;div style=&quot;text-align: left;&quot;&gt;&lt;font style=&quot;font-size: 12px;&quot;&gt;Input: 300uL of whole PB or BM&lt;/font&gt;&lt;/div&gt;&lt;div style=&quot;text-align: left;&quot;&gt;&lt;span style=&quot;background-color: initial;&quot;&gt;&lt;br&gt;&lt;/span&gt;&lt;/div&gt;&lt;div style=&quot;text-align: left;&quot;&gt;&lt;font style=&quot;font-size: 12px;&quot;&gt;&lt;b style=&quot;background-color: initial;&quot;&gt;1.&amp;nbsp;&lt;/b&gt;&lt;b style=&quot;background-color: initial;&quot;&gt;&lt;font style=&quot;&quot;&gt;DNA extraction&lt;/font&gt;&lt;/b&gt;&lt;/font&gt;&lt;br&gt;&lt;/div&gt;&lt;div&gt;&lt;div style=&quot;text-align: left;&quot;&gt;QIAGEN Puregene Blood Kit&lt;/div&gt;&lt;div style=&quot;text-align: left;&quot;&gt;&lt;span style=&quot;font-size: 12px;&quot;&gt;&lt;br&gt;&lt;/span&gt;&lt;/div&gt;&lt;div style=&quot;&quot;&gt;&lt;div style=&quot;text-align: left;&quot;&gt;&lt;font style=&quot;font-size: 12px;&quot;&gt;&lt;b style=&quot;&quot;&gt;2. Shearing DNA for 20kb input&lt;/b&gt;&lt;/font&gt;&lt;/div&gt;&lt;div style=&quot;text-align: left;&quot;&gt;26G 0.5in needle + 1mL syringe&lt;/div&gt;&lt;div&gt;&lt;span style=&quot;background-color: initial; font-size: 12px;&quot;&gt;&lt;br&gt;&lt;/span&gt;&lt;/div&gt;&lt;div&gt;&lt;div style=&quot;text-align: left;&quot;&gt;&lt;font size=&quot;1&quot;&gt;&lt;b style=&quot;font-size: 12px;&quot;&gt;3.&amp;nbsp;&lt;/b&gt;&lt;/font&gt;&lt;b style=&quot;background-color: initial; font-size: 12px;&quot;&gt;Library Prep&lt;/b&gt;&lt;/div&gt;&lt;div style=&quot;text-align: left;&quot;&gt;Rapid Sequencing kit (SQK-RAD114)&lt;/div&gt;&lt;/div&gt;&lt;div style=&quot;text-align: left;&quot;&gt;&lt;br&gt;&lt;/div&gt;&lt;div style=&quot;text-align: left;&quot;&gt;&lt;div&gt;&lt;b style=&quot;&quot;&gt;&lt;font style=&quot;font-size: 12px;&quot;&gt;4. Long-read Sequencing&lt;/font&gt;&lt;/b&gt;&lt;/div&gt;&lt;div&gt;ONT PromethION 2 solo&lt;/div&gt;&lt;/div&gt;&lt;div&gt;&lt;span style=&quot;font-size: 12px;&quot;&gt;&lt;br&gt;&lt;/span&gt;&lt;/div&gt;&lt;div&gt;&lt;div style=&quot;text-align: left;&quot;&gt;&lt;font style=&quot;font-size: 12px;&quot;&gt;&lt;b style=&quot;&quot;&gt;5. &lt;/b&gt;&lt;b style=&quot;background-color: initial;&quot;&gt;Basecalling and Alignment&lt;/b&gt;&lt;/font&gt;&lt;/div&gt;&lt;div style=&quot;text-align: left;&quot;&gt;Dorado + minimap2, hg38&lt;/div&gt;&lt;/div&gt;&lt;div style=&quot;text-align: left;&quot;&gt;&lt;span style=&quot;font-size: 12px;&quot;&gt;&lt;br&gt;&lt;/span&gt;&lt;/div&gt;&lt;div&gt;&lt;div style=&quot;text-align: left;&quot;&gt;&lt;font style=&quot;font-size: 12px;&quot;&gt;&lt;b style=&quot;&quot;&gt;6. Extract SV, SNV, CNV, and 5mC&lt;/b&gt;&lt;/font&gt;&lt;/div&gt;&lt;div style=&quot;text-align: left;&quot;&gt;Modkit, Epi2me wf-human variation&lt;/div&gt;&lt;/div&gt;&lt;div style=&quot;text-align: left;&quot;&gt;&lt;span style=&quot;font-size: 12px;&quot;&gt;&lt;br&gt;&lt;/span&gt;&lt;/div&gt;&lt;div style=&quot;text-align: left;&quot;&gt;&lt;div&gt;&lt;font size=&quot;1&quot;&gt;&lt;b style=&quot;font-size: 12px;&quot;&gt;7. Harmonize data to array&lt;/b&gt;&lt;/font&gt;&lt;/div&gt;&lt;div&gt;28M CpGs &amp;gt; 333,058 CpGs&lt;/div&gt;&lt;div&gt;&lt;br&gt;&lt;/div&gt;&lt;div&gt;&lt;div&gt;&lt;font size=&quot;1&quot;&gt;&lt;b style=&quot;font-size: 12px;&quot;&gt;8. Apply models to new data&lt;/b&gt;&lt;/font&gt;&lt;/div&gt;&lt;div&gt;PaCMAP &amp;gt; AL Epigenomic Phenotype&lt;/div&gt;&lt;/div&gt;&lt;div&gt;PaCMAP &amp;gt; AML Epigenomic Risk&lt;/div&gt;&lt;div&gt;&lt;br&gt;&lt;/div&gt;&lt;div&gt;&lt;div&gt;&lt;font size=&quot;1&quot;&gt;&lt;b style=&quot;font-size: 12px;&quot;&gt;9. Generate Dx and Px Genomics&lt;/b&gt;&lt;/font&gt;&lt;/div&gt;&lt;/div&gt;&lt;div&gt;SV, SNV, CNV &amp;gt; WHO22&amp;nbsp; guidelines&lt;/div&gt;&lt;div&gt;&lt;br&gt;&lt;/div&gt;&lt;div&gt;&lt;div&gt;&lt;font size=&quot;1&quot;&gt;&lt;b style=&quot;font-size: 12px;&quot;&gt;10.&amp;nbsp;&lt;/b&gt;&lt;/font&gt;&lt;b style=&quot;background-color: initial; font-size: 12px;&quot;&gt;Extract PGx, HLA, ACS10&lt;/b&gt;&lt;/div&gt;&lt;div&gt;PharmCAT, SpecHLA, Cyrius&lt;/div&gt;&lt;/div&gt;&lt;div&gt;&lt;span style=&quot;font-size: 12px; background-color: initial;&quot;&gt;&lt;br&gt;&lt;/span&gt;&lt;/div&gt;&lt;div&gt;&lt;span style=&quot;font-size: 12px; background-color: initial;&quot;&gt;Output: rapid and comprehensive&lt;/span&gt;&lt;/div&gt;&lt;div&gt;&lt;font style=&quot;font-size: 12px;&quot;&gt;&lt;b&gt;diagnosis and prognosis&amp;nbsp;&lt;/b&gt;&lt;/font&gt;&lt;/div&gt;&lt;div&gt;&lt;span style=&quot;font-size: 12px;&quot;&gt;for acute leukemia patients.&lt;/span&gt;&lt;/div&gt;&lt;/div&gt;&lt;/div&gt;&lt;/div&gt;" style="rounded=0;whiteSpace=wrap;html=1;fontSize=11;align=center;" parent="1" vertex="1">
          <mxGeometry x="10310" y="3301.13" width="270" height="571.18" as="geometry" />
        </mxCell>
        <mxCell id="kwAKL1qxhj1IjLQ5lcQS-33" value="" style="endArrow=none;html=1;rounded=0;fontSize=12;" parent="1" edge="1">
          <mxGeometry width="50" height="50" relative="1" as="geometry">
            <mxPoint x="10310.880000000001" y="3342.31" as="sourcePoint" />
            <mxPoint x="10580" y="3342.31" as="targetPoint" />
          </mxGeometry>
        </mxCell>
        <mxCell id="kwAKL1qxhj1IjLQ5lcQS-34" style="edgeStyle=orthogonalEdgeStyle;rounded=0;orthogonalLoop=1;jettySize=auto;html=1;exitX=0.5;exitY=1;exitDx=0;exitDy=0;" parent="1" source="kwAKL1qxhj1IjLQ5lcQS-32" target="kwAKL1qxhj1IjLQ5lcQS-32" edge="1">
          <mxGeometry relative="1" as="geometry" />
        </mxCell>
        <mxCell id="2w2-4AnaaRz4hfy2APxf-17" value="&lt;span style=&quot;font-size: 36px;&quot;&gt;Manuscript 9-20-24&lt;/span&gt;" style="text;html=1;strokeColor=none;fillColor=none;align=center;verticalAlign=middle;whiteSpace=wrap;rounded=0;" parent="1" vertex="1">
          <mxGeometry x="11010" y="2634.9999999999995" width="330" height="30" as="geometry" />
        </mxCell>
        <mxCell id="2w2-4AnaaRz4hfy2APxf-18" value="&lt;span style=&quot;font-size: 36px;&quot;&gt;Study Strategy&lt;/span&gt;" style="text;html=1;strokeColor=none;fillColor=none;align=center;verticalAlign=middle;whiteSpace=wrap;rounded=0;" parent="1" vertex="1">
          <mxGeometry x="11010" y="2689.9999999999995" width="330" height="30" as="geometry" />
        </mxCell>
        <mxCell id="2w2-4AnaaRz4hfy2APxf-19" value="" style="edgeStyle=orthogonalEdgeStyle;rounded=0;orthogonalLoop=1;jettySize=auto;html=1;" parent="1" source="2w2-4AnaaRz4hfy2APxf-20" target="2w2-4AnaaRz4hfy2APxf-25" edge="1">
          <mxGeometry relative="1" as="geometry" />
        </mxCell>
        <mxCell id="2w2-4AnaaRz4hfy2APxf-20" value="&lt;div style=&quot;&quot;&gt;&lt;div style=&quot;&quot;&gt;&lt;div style=&quot;font-size: 11px;&quot;&gt;&lt;span style=&quot;text-align: justify; background-color: initial; font-size: 12px;&quot;&gt;&lt;b&gt;Acute Leukemia Methylome Atlas&lt;/b&gt;&lt;/span&gt;&lt;/div&gt;&lt;div style=&quot;font-size: 11px;&quot;&gt;&lt;span style=&quot;text-align: justify; background-color: initial; font-size: 12px;&quot;&gt;n=3314&lt;/span&gt;&lt;/div&gt;&lt;div style=&quot;font-size: 11px;&quot;&gt;&lt;span style=&quot;text-align: justify; background-color: initial; font-size: 12px;&quot;&gt;AML, ALL, MDS, MPAL studies/trials&lt;/span&gt;&lt;br&gt;&lt;/div&gt;&lt;div style=&quot;text-align: justify;&quot;&gt;&lt;div style=&quot;font-size: 11px;&quot;&gt;&lt;span style=&quot;font-size: 12px;&quot;&gt;Bone Marrow and Peripheral Blood&lt;/span&gt;&lt;/div&gt;&lt;/div&gt;&lt;/div&gt;&lt;/div&gt;" style="rounded=0;whiteSpace=wrap;html=1;align=center;" parent="1" vertex="1">
          <mxGeometry x="10749" y="2880" width="261" height="130" as="geometry" />
        </mxCell>
        <mxCell id="2w2-4AnaaRz4hfy2APxf-21" value="" style="edgeStyle=orthogonalEdgeStyle;rounded=0;orthogonalLoop=1;jettySize=auto;html=1;" parent="1" source="2w2-4AnaaRz4hfy2APxf-20" target="2w2-4AnaaRz4hfy2APxf-23" edge="1">
          <mxGeometry relative="1" as="geometry" />
        </mxCell>
        <mxCell id="2w2-4AnaaRz4hfy2APxf-22" value="" style="edgeStyle=orthogonalEdgeStyle;rounded=0;orthogonalLoop=1;jettySize=auto;html=1;" parent="1" source="2w2-4AnaaRz4hfy2APxf-23" target="2w2-4AnaaRz4hfy2APxf-27" edge="1">
          <mxGeometry relative="1" as="geometry" />
        </mxCell>
        <mxCell id="2w2-4AnaaRz4hfy2APxf-23" value="&lt;div style=&quot;&quot;&gt;&lt;div style=&quot;&quot;&gt;&lt;div style=&quot;text-align: justify;&quot;&gt;&lt;b&gt;AML Epigenomic Risk&lt;/b&gt;&lt;/div&gt;&lt;div style=&quot;&quot;&gt;n=946&lt;b&gt;&lt;br&gt;&lt;/b&gt;&lt;/div&gt;&lt;div style=&quot;font-size: 11px; text-align: left;&quot;&gt;&lt;span style=&quot;font-size: 12px; text-align: justify; background-color: initial;&quot;&gt;AML samples w/ vital status info&lt;/span&gt;&lt;/div&gt;&lt;/div&gt;&lt;/div&gt;" style="rounded=0;whiteSpace=wrap;html=1;align=center;" parent="1" vertex="1">
          <mxGeometry x="11055" y="2950" width="260" height="70" as="geometry" />
        </mxCell>
        <mxCell id="2w2-4AnaaRz4hfy2APxf-24" value="" style="edgeStyle=orthogonalEdgeStyle;rounded=0;orthogonalLoop=1;jettySize=auto;html=1;" parent="1" source="2w2-4AnaaRz4hfy2APxf-25" target="2w2-4AnaaRz4hfy2APxf-27" edge="1">
          <mxGeometry relative="1" as="geometry" />
        </mxCell>
        <mxCell id="2w2-4AnaaRz4hfy2APxf-25" value="&lt;div style=&quot;&quot;&gt;&lt;div style=&quot;&quot;&gt;&lt;div style=&quot;font-size: 11px; text-align: justify;&quot;&gt;&lt;b&gt;&lt;font style=&quot;font-size: 12px;&quot;&gt;AL Epigenomic Subtype&lt;/font&gt;&lt;/b&gt;&lt;/div&gt;&lt;div style=&quot;&quot;&gt;&lt;div style=&quot;&quot;&gt;&lt;span style=&quot;background-color: initial;&quot;&gt;n=2471&lt;/span&gt;&lt;/div&gt;&lt;div style=&quot;&quot;&gt;Samples w/ WHO 2022 Dx info&lt;/div&gt;&lt;/div&gt;&lt;/div&gt;&lt;/div&gt;" style="rounded=0;whiteSpace=wrap;html=1;align=center;" parent="1" vertex="1">
          <mxGeometry x="11055" y="2880" width="260" height="70" as="geometry" />
        </mxCell>
        <mxCell id="2w2-4AnaaRz4hfy2APxf-27" value="&lt;div style=&quot;&quot;&gt;&lt;div style=&quot;&quot;&gt;&lt;div style=&quot;font-size: 11px;&quot;&gt;&lt;span style=&quot;font-size: 12px; text-align: justify; background-color: initial;&quot;&gt;&lt;b&gt;Multi-center AML02,08 Trials&lt;/b&gt;&lt;/span&gt;&lt;br&gt;&lt;/div&gt;&lt;div style=&quot;font-size: 11px;&quot;&gt;&lt;span style=&quot;font-size: 12px; text-align: justify; background-color: initial;&quot;&gt;n=200&lt;/span&gt;&lt;/div&gt;&lt;div style=&quot;text-align: justify;&quot;&gt;&lt;div style=&quot;font-size: 11px;&quot;&gt;&lt;font style=&quot;font-size: 12px;&quot;&gt;Dx&amp;nbsp;&lt;/font&gt;&lt;span style=&quot;font-size: 12px; background-color: initial;&quot;&gt;Illumina Methyl Array 450k&lt;/span&gt;&lt;/div&gt;&lt;div style=&quot;font-size: 11px;&quot;&gt;&lt;span style=&quot;font-size: 12px; background-color: initial;&quot;&gt;&lt;br&gt;&lt;/span&gt;&lt;/div&gt;&lt;div style=&quot;font-size: 11px;&quot;&gt;&lt;span style=&quot;font-size: 12px; background-color: initial;&quot;&gt;&lt;br&gt;&lt;/span&gt;&lt;/div&gt;&lt;div style=&quot;font-size: 11px;&quot;&gt;&lt;div style=&quot;font-size: 12px; text-align: center;&quot;&gt;&lt;b&gt;Fresh samples from UF HemBank&lt;/b&gt;&lt;/div&gt;&lt;div style=&quot;font-size: 12px; text-align: center;&quot;&gt;n=12&lt;/div&gt;&lt;div style=&quot;font-size: 12px;&quot;&gt;&lt;div style=&quot;font-size: 11px;&quot;&gt;&lt;font style=&quot;font-size: 12px;&quot;&gt;PB/BM, Long-Read Nanopore Seq&lt;/font&gt;&lt;/div&gt;&lt;/div&gt;&lt;/div&gt;&lt;/div&gt;&lt;/div&gt;&lt;/div&gt;" style="rounded=0;whiteSpace=wrap;html=1;align=center;" parent="1" vertex="1">
          <mxGeometry x="11380" y="2915" width="260" height="140" as="geometry" />
        </mxCell>
        <mxCell id="2w2-4AnaaRz4hfy2APxf-29" value="Unveil the epigenomic landscape of acute leukemia" style="text;html=1;strokeColor=none;fillColor=none;align=center;verticalAlign=middle;whiteSpace=wrap;rounded=0;" parent="1" vertex="1">
          <mxGeometry x="10788.63" y="2840" width="181.75" height="30" as="geometry" />
        </mxCell>
        <mxCell id="2w2-4AnaaRz4hfy2APxf-30" value="Use AL landscape to create models predictive of diagnosis and prognosis" style="text;html=1;strokeColor=none;fillColor=none;align=center;verticalAlign=middle;whiteSpace=wrap;rounded=0;" parent="1" vertex="1">
          <mxGeometry x="11065" y="2827.96" width="240" height="45" as="geometry" />
        </mxCell>
        <mxCell id="2w2-4AnaaRz4hfy2APxf-31" value="Test models retrospective and prospective studies" style="text;html=1;strokeColor=none;fillColor=none;align=center;verticalAlign=middle;whiteSpace=wrap;rounded=0;" parent="1" vertex="1">
          <mxGeometry x="11421.380000000001" y="2872.96" width="177.24" height="30" as="geometry" />
        </mxCell>
        <mxCell id="YB7k9liiquXUHI0BjPXt-11" value="" style="edgeStyle=orthogonalEdgeStyle;rounded=0;orthogonalLoop=1;jettySize=auto;html=1;" edge="1" parent="1" source="2w2-4AnaaRz4hfy2APxf-33" target="YB7k9liiquXUHI0BjPXt-9">
          <mxGeometry relative="1" as="geometry" />
        </mxCell>
        <mxCell id="2w2-4AnaaRz4hfy2APxf-33" value="&lt;div style=&quot;&quot;&gt;&lt;div style=&quot;&quot;&gt;&lt;div style=&quot;font-size: 11px;&quot;&gt;&lt;span style=&quot;background-color: initial; font-size: 12px; text-align: justify;&quot;&gt;&lt;b&gt;Epigenome-Wide Association Study&amp;nbsp;&lt;/b&gt;&lt;/span&gt;&lt;/div&gt;&lt;div style=&quot;font-size: 11px;&quot;&gt;&lt;span style=&quot;background-color: initial; font-size: 12px; text-align: justify;&quot;&gt;n=946&lt;/span&gt;&lt;br&gt;&lt;/div&gt;&lt;div style=&quot;font-size: 11px;&quot;&gt;&lt;span style=&quot;text-align: justify; background-color: initial; font-size: 12px;&quot;&gt;AAML1031 and 0531&lt;/span&gt;&lt;span style=&quot;font-size: 12px; text-align: justify; background-color: initial;&quot;&gt;&amp;nbsp;Dx Samples&lt;/span&gt;&lt;/div&gt;&lt;div style=&quot;font-size: 11px;&quot;&gt;&lt;span style=&quot;font-size: 12px; text-align: justify;&quot;&gt;Bone Marrow and Peripheral Blood&amp;nbsp;&lt;/span&gt;&lt;span style=&quot;font-size: 12px; text-align: justify; background-color: initial;&quot;&gt;&lt;br&gt;&lt;/span&gt;&lt;/div&gt;&lt;/div&gt;&lt;/div&gt;" style="rounded=0;whiteSpace=wrap;html=1;align=center;" parent="1" vertex="1">
          <mxGeometry x="10749" y="3020" width="261" height="70" as="geometry" />
        </mxCell>
        <mxCell id="YB7k9liiquXUHI0BjPXt-3" value="" style="endArrow=none;html=1;rounded=0;entryX=1;entryY=0.5;entryDx=0;entryDy=0;exitX=0;exitY=0.5;exitDx=0;exitDy=0;" edge="1" parent="1" source="2w2-4AnaaRz4hfy2APxf-27" target="2w2-4AnaaRz4hfy2APxf-27">
          <mxGeometry width="50" height="50" relative="1" as="geometry">
            <mxPoint x="11370" y="2952.53" as="sourcePoint" />
            <mxPoint x="11565" y="2952.53" as="targetPoint" />
          </mxGeometry>
        </mxCell>
        <mxCell id="YB7k9liiquXUHI0BjPXt-10" value="" style="edgeStyle=orthogonalEdgeStyle;rounded=0;orthogonalLoop=1;jettySize=auto;html=1;" edge="1" parent="1" source="YB7k9liiquXUHI0BjPXt-9" target="2w2-4AnaaRz4hfy2APxf-27">
          <mxGeometry relative="1" as="geometry" />
        </mxCell>
        <mxCell id="YB7k9liiquXUHI0BjPXt-9" value="&lt;div style=&quot;&quot;&gt;&lt;div style=&quot;&quot;&gt;&lt;div style=&quot;text-align: justify;&quot;&gt;&lt;b&gt;38CpG-AMLsignature&lt;/b&gt;&lt;/div&gt;&lt;div style=&quot;&quot;&gt;n=946&lt;b&gt;&lt;br&gt;&lt;/b&gt;&lt;/div&gt;&lt;div style=&quot;font-size: 11px; text-align: left;&quot;&gt;&lt;span style=&quot;font-size: 12px; text-align: justify; background-color: initial;&quot;&gt;AML samples w/ vital status info&lt;/span&gt;&lt;/div&gt;&lt;/div&gt;&lt;/div&gt;" style="rounded=0;whiteSpace=wrap;html=1;align=center;" vertex="1" parent="1">
          <mxGeometry x="11055" y="3020" width="260" height="70" as="geometry" />
        </mxCell>
      </root>
    </mxGraphModel>
  </diagram>
</mxfile>
